<?xml version="1.0" encoding="UTF-8" standalone="no"?>
<!-- Created with Inkscape (http://www.inkscape.org/) -->

<svg
   version="1.1"
   width="979.96698"
   height="484.18692"
   id="svg2"
   sodipodi:docname="brush-stroke-banner-6.svg"
   inkscape:export-filename="..\asmuiahmad.github.io\assets\img\blue_stroke.svg"
   inkscape:export-xdpi="50.034954"
   inkscape:export-ydpi="50.034954"
   xmlns:inkscape="http://www.inkscape.org/namespaces/inkscape"
   xmlns:sodipodi="http://sodipodi.sourceforge.net/DTD/sodipodi-0.dtd"
   xmlns="http://www.w3.org/2000/svg"
   xmlns:svg="http://www.w3.org/2000/svg"
   xmlns:rdf="http://www.w3.org/1999/02/22-rdf-syntax-ns#"
   xmlns:cc="http://creativecommons.org/ns#"
   xmlns:dc="http://purl.org/dc/elements/1.1/">
  <sodipodi:namedview
     id="namedview1"
     pagecolor="#505050"
     bordercolor="#ffffff"
     borderopacity="1"
     inkscape:showpageshadow="0"
     inkscape:pageopacity="0"
     inkscape:pagecheckerboard="1"
     inkscape:deskcolor="#505050" />
  <metadata
     id="metadata8">
    <rdf:RDF>
      <cc:Work
         rdf:about="">
        <dc:format>image/svg+xml</dc:format>
        <dc:type
           rdf:resource="http://purl.org/dc/dcmitype/StillImage" />
      </cc:Work>
    </rdf:RDF>
  </metadata>
  <defs
     id="defs6" />
  <path
     d="m 255.64603,481.63005 c 0,-1.40667 -0.23609,-2.28799 -0.52466,-1.95854 -0.28856,0.32944 -0.88478,-0.99325 -1.32494,-2.9393 -0.46434,-2.05293 -1.18037,-3.53826 -1.70569,-3.53826 -0.71555,0 -0.77332,-0.29396 -0.27555,-1.40196 0.48386,-1.07698 0.46788,-1.50263 -0.069,-1.83631 -0.54973,-0.34169 -0.5257,-0.82362 0.11268,-2.25856 0.61841,-1.39012 0.6506,-1.92426 0.13525,-2.24468 -0.37196,-0.23132 -0.67628,-0.85925 -0.67628,-1.39559 0,-0.53633 0.24067,-0.70035 0.53483,-0.3645 0.30668,0.3501 0.39738,-0.0511 0.21262,-0.94046 -0.17721,-0.85309 -0.0442,-1.55102 0.29573,-1.55102 0.4503,0 0.46084,-0.54234 0.0389,-1.99886 -0.46512,-1.60552 -0.41143,-1.99886 0.27282,-1.99886 0.68847,0 0.72191,-0.25705 0.17437,-1.33978 -0.70042,-1.38512 -2.06083,-0.14676 -1.88319,1.71459 0.0458,0.48096 -0.20172,1.06881 -0.55024,1.30634 -0.41683,0.28405 -0.52655,-0.32527 -0.32056,-1.78038 0.17226,-1.21672 0.0923,-1.97325 -0.17781,-1.68125 -0.27005,0.29202 -0.97791,0.20005 -1.57304,-0.20436 -0.85803,-0.583 -0.60602,-0.88563 1.21729,-1.4619 1.43386,-0.45322 2.29936,-1.25796 2.29936,-2.13803 0,-0.77623 0.47311,-1.41128 1.05136,-1.41128 0.57825,0 1.38439,-0.87837 1.79144,-1.95186 0.7298,-1.92476 3.48554,-4.55124 4.37881,-4.17341 0.25235,0.10684 1.83483,-0.44736 3.51663,-1.23133 1.6818,-0.78397 4.57988,-1.7424 6.44017,-2.12984 1.86031,-0.38747 3.51802,-1.10998 3.68383,-1.60557 0.16582,-0.49561 0.83488,-0.91119 1.48684,-0.9235 0.65194,-0.0156 2.64613,-1.35148 4.4315,-2.97589 1.78538,-1.62441 3.65783,-2.96354 4.161,-2.97584 0.50317,-0.0157 1.06533,-0.47213 1.24923,-1.02185 0.18389,-0.54968 0.0596,-0.99942 -0.27621,-0.99942 -0.7498,0 -0.47947,-4.46982 0.27621,-4.56692 0.29756,-0.0383 1.6084,-0.63398 2.91302,-1.32394 1.30459,-0.68997 2.96611,-0.979 3.69224,-0.64232 0.72613,0.3367 2.09333,0.17162 3.03823,-0.36673 0.94488,-0.53839 3.07649,-1.47003 4.73691,-2.07027 4.55664,-1.64728 6.98997,-3.02339 6.98997,-3.95297 0,-0.9634 -27.75401,-0.29112 -34.62541,0.83872 -3.62026,0.59526 -5.00158,0.43254 -6.49227,-0.76479 -1.04146,-0.83654 -2.0153,-1.58599 -2.16409,-1.66546 -0.14877,-0.0795 -0.982,-0.68728 -1.85162,-1.35079 -0.86961,-0.66345 -1.96517,-0.93005 -2.43459,-0.59242 -0.46942,0.3377 -7.67038,0.7754 -16.00211,0.97273 -8.33173,0.19747 -16.24419,0.80663 -17.58321,1.354 -1.33903,0.54739 -5.35186,1.51738 -8.91737,2.15553 -3.56553,0.63817 -6.9486,1.62084 -7.51794,2.18371 -0.56934,0.56289 -2.22426,0.81235 -3.67758,0.55439 -1.45334,-0.25795 -2.77368,-0.0771 -2.93412,0.40286 -0.16044,0.47955 -0.51835,0.61316 -0.79534,0.29687 -0.277,-0.3162 -0.50363,-0.0988 -0.50363,0.48342 0,0.58213 -0.18259,0.96917 -0.40578,0.86008 -0.89993,-0.43988 -5.54547,1.37842 -5.54547,2.17058 0,0.97545 -4.08688,2.59695 -5.63217,2.23458 -0.5684,-0.13326 -1.49085,0.66464 -2.0499,1.77314 -0.55904,1.1085 -1.433,2.06855 -1.94216,2.13348 -0.50914,0.065 -2.38648,0.21507 -4.17184,0.33362 -1.78538,0.11819 -4.21997,0.73474 -5.41022,1.36932 -1.19025,0.63463 -3.08383,1.4067 -4.20796,1.71579 -1.12412,0.30906 -1.91184,0.95656 -1.75045,1.43889 0.50357,1.50519 -0.69867,1.89947 -10.09835,3.31161 -0.49948,0.0752 -0.86469,0.5624 -0.81153,1.08306 0.0532,0.52068 -0.39032,1.21135 -0.98545,1.53484 -0.59511,0.3235 -1.69671,1.36057 -2.44799,2.30464 -0.98276,1.23489 -3.0317,1.89681 -7.3038,2.35937 -3.2658,0.3536 -6.5006,0.59588 -7.18839,0.53837 -0.68782,-0.0573 -1.99828,0.60971 -2.91215,1.48272 -0.94382,0.90156 -1.80589,1.19125 -1.99558,0.67056 -0.46575,-1.27841 -2.37047,-2.50628 -1.95321,-1.25918 0.43975,1.31442 -0.0867,1.24712 -1.52721,-0.19529 -2.90743,-2.91124 -16.6715,-0.6984 -18.1074,2.91118 -0.44454,1.11742 -0.49328,1.87124 -0.13526,2.09172 0.30786,0.18981 0.55976,0.74278 0.55976,1.22947 0,0.48659 -0.34057,0.64335 -0.75682,0.34828 -0.41624,-0.29511 -0.91752,-0.056 -1.11398,0.53105 -0.52459,1.56806 2.71771,1.34062 4.46752,-0.31341 0.80351,-0.75951 2.55651,-1.71203 3.89552,-2.11665 1.33903,-0.40471 2.86066,-0.88173 3.38141,-1.06024 0.52074,-0.17866 0.94678,0.26459 0.94678,0.98463 0,0.92602 0.67284,1.2118 2.29934,0.97649 1.77738,-0.25711 2.08184,-0.0998 1.34119,0.69378 -0.527,0.56451 -0.83635,1.39052 -0.68745,1.83552 0.32114,0.95992 -2.70369,1.92519 -8.55975,2.73165 -3.28812,0.45275 -4.36122,0.27359 -4.72567,-0.78934 -0.34201,-0.9974 -0.4738,-1.032 -0.47981,-0.12582 -0.0123,1.83997 -3.26416,1.5428 -4.42913,-0.40478 -0.54416,-0.9097 -0.98939,-1.22854 -0.98939,-0.70851 0,0.57349 -1.7561,0.67519 -4.46342,0.25842 -2.45488,-0.37791 -6.289392,-0.93489 -8.521112,-1.23771 -2.23171,-0.30284 -4.857363,-1.07353 -5.834772,-1.71255 -0.977416,-0.63903 -2.383123,-0.9479 -3.123809,-0.68631 -0.74066,0.26153 -1.50019,0.0176 -1.687853,-0.5443 -0.209758,-0.62695 -0.06833,-0.70836 0.367024,-0.2112 0.440573,0.50301 0.576882,0.41608 0.360723,-0.23015 -0.407403,-1.2177 -2.987727,-2.32076 -6.041458,-2.58261 -1.801375,-0.15439 -2.173926,-0.54549 -2.22284,-2.33299 -0.05252,-1.91953 0.320619,-2.22862 3.516644,-2.91297 1.966467,-0.42105 4.184048,-0.66828 4.927953,-0.54936 l 1.352559,0.21625 -1.435517,-1.44142 c -2.489351,-2.4996 -4.916679,-3.55428 -9.655434,-4.19552 -2.52928,-0.34221 -6.181188,-1.35672 -8.115335,-2.25447 -4.448549,-2.06477 -19.884435,-2.2231 -20.557644,-0.21079 -0.231674,0.69249 -0.707616,0.93213 -1.057625,0.5325 -0.903924,-1.03196 -10.860084,-1.37946 -10.521419,-0.36718 0.316765,0.94682 0.236153,0.96286 -6.841296,1.35965 -4.995214,0.28011 -7.103701,0.62158 -14.583191,2.36173 -3.41048,0.7935 -5.4044878,0.339 -7.3537208,-1.6761 -0.816311,-0.84394 -0.640378,-1.32393 1.325533,-3.61646 1.585655,-1.84906 3.5228148,-2.93668 6.4468308,-3.61948 4.98999,-1.16529 9.751032,-2.63326 13.181221,-4.06411 2.051795,-0.85586 2.46103,-1.38496 2.246035,-2.90359 -0.154316,-1.0901 -0.576005,-1.63504 -1.021108,-1.3195 -0.417023,0.29558 -0.758219,0.0393 -0.758219,-0.56888 0,-0.60854 0.426051,-1.11327 0.946786,-1.12166 0.809129,-0.0157 0.828788,-0.15596 0.135265,-0.98414 -0.513259,-0.61271 -0.569214,-0.97444 -0.152238,-0.98412 0.363635,-0.008 0.519137,-0.69003 0.346751,-1.51989 -0.217513,-1.04709 0.322293,-2.02575 1.775299,-3.21864 l 2.087838,-1.71406 -5.286108,-0.6025 c -2.907365,-0.33139 -6.741858,-0.557 -8.521095,-0.5013 -1.779238,0.0556 -3.234978,0.0452 -3.234978,-0.0237 0,-0.0685 0.486915,-1.16198 1.082038,-2.42953 0.595125,-1.26761 1.08205,-2.00068 1.08205,-1.62906 0,0.37163 0.548244,0.0157 1.218315,-0.79894 0.670072,-0.81107 3.02316,-1.99197 5.229104,-2.62417 2.205926,-0.63228 4.975008,-1.77803 6.153486,-2.54614 1.178508,-0.76812 3.0251,-1.41253 4.103543,-1.43214 3.012987,-0.0548 10.602594,-3.7002 8.407986,-4.03856 -0.272764,-0.0419 -0.982856,-0.28339 -1.577987,-0.53639 -0.595116,-0.25293 -1.379319,-0.58033 -1.742653,-0.72748 -1.237831,-0.50127 -1.316891,-1.474 -0.174249,-2.14395 0.627132,-0.36771 1.776601,-1.75801 2.554372,-3.08953 0.777763,-1.33156 1.957401,-2.42097 2.621432,-2.42097 0.664014,0 1.485047,-0.61825 1.82453,-1.37387 0.507247,-1.12906 0.06114,-1.49088 -2.503611,-2.03052 -1.716464,-0.36118 -3.851225,-0.87448 -4.743904,-1.14073 -2.123763,-0.63331 -10.574666,-0.54173 -11.155099,0.12094 -0.783074,0.89404 -6.969133,1.31564 -6.969133,0.475 0,-0.44178 0.365186,-1.3631 0.81153,-2.04737 0.446346,-0.68431 0.811529,-1.71381 0.811529,-2.28777 0,-0.57401 -0.160194,-0.7477 -0.355981,-0.38603 -0.195799,0.36168 -0.682715,0.15674 -1.082041,-0.45554 -0.402032,-0.61637 -0.726057,-0.68683 -0.726057,-0.15772 0,0.52538 -0.365196,0.95524 -0.811542,0.95524 -1.299327,0 -0.942903,-1.07036 0.842606,-2.53035 2.007942,-1.64187 1.72042,-2.33058 -1.516674,-3.63279 -2.953003,-1.18794 -3.515936,-3.04981 -1.398737,-4.62621 2.191098,-1.63144 12.485347,-3.74893 18.370049,-3.77859 2.758344,-0.0157 5.661006,-0.32478 6.450385,-0.69075 l 1.435218,-0.66545 -1.541497,-2.32939 c -0.847814,-1.28115 -1.953173,-2.34554 -2.456341,-2.3653 -1.282407,-0.0505 -1.672189,-1.64004 -0.984309,-4.01432 0.726338,-2.50712 5.432466,-7.01529 7.323322,-7.01529 0.797213,0 1.25817,-0.43137 1.068114,-0.99944 -0.183912,-0.54968 -0.780888,-0.99942 -1.326622,-0.99942 -0.916589,0 -1.935714,-2.49512 -1.734905,-4.24754 0.20413,-1.7814 -8.379802,0.21079 -9.098168,2.11154 -0.548652,1.45171 -14.363963,5.24545 -15.722098,4.31736 l -1.293321,-0.88381 1.258081,-1.24378 c 0.691926,-0.68405 5.186915,-2.45367 9.988861,-3.93244 8.786971,-2.70601 10.925523,-4.61643 5.167671,-4.61643 -1.769204,0 -3.396803,-0.57087 -3.925915,-1.37705 -0.751536,-1.14501 -1.792085,-1.17665 -6.17529,-0.18786 -8.05975,1.81831 -12.743795,3.06723 -13.842269,3.69074 -0.727772,0.41315 -0.946637,0.11682 -0.811539,-1.09836 0.196894,-1.77115 1.870727,-3.84926 4.494834,-5.58047 2.258694,-1.49008 0.854686,-2.80385 -2.033304,-1.90262 -1.252106,0.39072 -3.3721168,1.02725 -4.7111428,1.41447 l -2.4346,0.70405 2.028835,-3.5916 c 1.115858,-1.97542 2.0288358,-3.75237 2.0288358,-3.9488 0,-0.19639 -1.5097088,-0.67271 -3.3548968,-1.05831 -4.362734,-0.91183 -6.6971148,-3.17109 -6.66689159779,-6.45243 C 0.0161696,315.65395 3.5161862,313.33242 6.7728702,312.89211 c 1.340722,-0.1814 4.3853428,-1.04408 6.7658378,-1.9174 2.380506,-0.87332 6.032706,-1.79021 8.116008,-2.03755 2.083301,-0.24733 5.248271,-0.92346 7.033281,-1.50243 11.085868,-3.59604 13.580958,-4.48113 14.058783,-4.98729 0.293636,-0.31102 -0.558474,-1.05679 -1.893596,-1.65729 -1.343548,-0.60433 -2.427462,-1.67786 -2.427462,-2.4043 0,-1.68182 5.452949,-5.33504 10.401867,-6.96885 2.407404,-0.79476 4.188604,-1.97712 4.771803,-3.16759 0.521986,-1.06547 2.333093,-2.4092 4.124942,-3.06046 4.065442,-1.47746 3.955659,-2.87887 -0.461715,-5.89409 -0.947063,-0.64644 -1.612221,-1.69551 -1.478123,-2.33127 0.305204,-1.44695 2.812873,-3.65439 4.151389,-3.65439 0.553368,0 0.855645,-0.44975 0.671748,-0.99943 -0.18391,-0.54967 -2.14596,-0.99946 -4.360113,-0.99946 -3.648047,0 -5.112981,-1.0218 -3.349457,-2.33636 1.575777,-1.17458 -6.319838,-0.53866 -10.219643,0.82305 -4.856454,1.69583 -7.498829,0.98606 -7.498829,-2.01436 0,-1.38316 1.413193,-3.19929 5.310464,-6.82453 3.671323,-3.41513 5.090748,-5.20193 4.598681,-5.78893 -0.934683,-1.11497 -0.01218,-2.25491 3.616418,-4.46891 5.12175,-3.12499 9.184884,-8.36326 8.651449,-11.15363 -0.364349,-1.90586 1.631902,-2.94537 9.879387,-5.1445 4.099494,-1.0931 8.204996,-2.6799 9.123327,-3.52618 0.918337,-0.84628 2.862542,-1.80279 4.320468,-2.12561 4.020037,-0.89007 11.712163,-4.48479 12.915313,-6.03567 0.58693,-0.75656 1.80424,-1.40713 2.7051,-1.44582 0.90088,-0.0386 2.12487,-0.45674 2.72,-0.92913 0.86159,-0.68398 0.64116,-0.88894 -1.08204,-1.00617 -4.61144,-0.31372 -7.058439,-1.15358 -7.669835,-2.63251 -0.417378,-1.00958 -1.06939,-1.32005 -1.893586,-0.90168 -1.081704,0.54909 -1.123605,0.48372 -0.300476,-0.46882 0.52612,-0.60881 1.378233,-0.9788 1.893581,-0.82223 0.51536,0.15674 1.264552,-0.0945 1.664886,-0.55784 0.43064,-0.49847 1.27275,-0.3038 2.06222,0.47673 1.03992,1.02809 1.56022,1.05862 2.35793,0.13854 0.64761,-0.74712 1.14388,-0.82127 1.3511,-0.20177 0.18014,0.53843 1.71305,0.99491 3.406462,1.01434 1.69343,0.0196 3.6876,0.67814 4.4315,1.46374 1.62068,1.71144 2.16409,1.83693 2.16409,0.49972 0,-0.54968 -0.37956,-0.99942 -0.84346,-0.99942 -0.46391,0 -0.7101,-0.39863 -0.54709,-0.88583 0.16298,-0.48716 -0.21349,-1.13205 -0.83661,-1.4331 -0.62312,-0.30104 -1.02719,-1.13922 -0.89789,-1.8626 0.23858,-1.33491 2.66197,-2.11712 10.15832,-3.27872 6.77251,-1.04944 8.65637,-1.61425 8.65637,-2.59528 0,-0.51598 -0.36519,-0.93815 -0.81153,-0.93815 -0.45084,0 -0.81154,-0.88837 -0.81154,-1.99882 0,-1.4658 0.3607,-1.99886 1.35256,-1.99886 1.5563,0 1.82169,-1.53911 0.38506,-2.2331 -0.53211,-0.25705 -3.27104,-0.22733 -6.08649,0.0659 -8.19997,0.85487 -11.4801,0.57041 -13.19555,-1.14434 -0.87134,-0.87105 -1.74025,-1.40561 -1.93094,-1.18791 -0.19066,0.21766 -0.24607,-0.87031 -0.12311,-2.41774 0.26825,-3.37647 -0.49269,-3.9031 -6.047712,-4.18539 -3.32464,-0.16907 -3.58268,-0.32063 -2.42727,-1.42686 1.90081,-1.81977 8.873402,-4.4315 13.031352,-4.88114 2.125,-0.22968 4.13227,-1.05048 4.85434,-1.98472 1.53696,-1.98867 2.46313,-2.0135 3.50229,-0.0939 0.46743,0.86352 1.77008,1.49007 3.07223,1.47762 4.00987,-0.0384 18.97089,-2.84896 21.00217,-3.94573 1.89689,-1.02426 1.95441,-1.18959 1.55422,-4.46752 -0.25217,-2.06549 -0.19544,-3.81054 0.14432,-4.43817 0.38583,-0.71277 0.36919,-1.45872 -0.0534,-2.39966 -1.29247,-2.87683 0.35169,-3.47245 8.24718,-2.98761 6.13473,0.37675 8.04846,0.17032 9.2933,-1.00235 1.31707,-1.24066 7.25507,-2.95205 11.30606,-3.25845 0.59511,-0.0447 2.29934,-0.48387 3.78715,-0.97532 l 2.7051,-0.89344 -2.43458,-0.727 c -1.33905,-0.39987 -5.35613,-0.49767 -8.92688,-0.21742 -3.57074,0.28029 -8.6834,0.44985 -11.36147,0.37669 -2.67803,-0.073 -7.91243,0.59955 -11.63195,1.49495 -7.35967,1.77162 -14.94947,3.01087 -18.21678,2.97443 -1.13935,-0.0141 -2.22449,0.36962 -2.41138,0.84965 -0.18692,0.48005 -1.09989,0.93019 -2.02884,1.00034 -0.92896,0.0702 -1.689,0.49989 -1.689,0.955 0,0.45512 -0.54779,0.54285 -1.2173,0.19504 -0.95293,-0.49514 -1.04107,-0.40457 -0.40577,0.41706 0.69958,0.90478 0.68091,1.05169 -0.13525,1.06489 -0.52073,0.009 -0.9468,0.51675 -0.9468,1.12966 0,0.68441 -0.51453,0.4916 -1.33351,-0.49972 -1.48102,-1.79259 -2.13036,-2.07404 -1.68011,-0.72827 0.16299,0.48717 -0.18782,1.1197 -0.7796,1.40558 -0.61581,0.2975 -1.07604,0.0252 -1.07612,-0.63595 -1e-4,-0.66913 -0.85427,-1.15574 -2.02885,-1.15574 -1.28946,0 -1.98252,0.43784 -1.90203,1.20154 0.0873,0.82689 -0.49584,1.05431 -1.87006,0.72928 -2.25226,-0.5327 -4.474182,-2.86143 -4.486602,-4.70223 -0.005,-0.78689 -0.19621,-0.68911 -0.53274,0.2729 -0.40706,1.16357 -0.52632,0.86918 -0.53275,-1.315 -0.0105,-3.60468 0.88081,-6.68038 1.936242,-6.68038 0.45342,0 0.67395,-0.44974 0.49005,-0.9994 -0.18391,-0.54969 0.10606,-1.03386 0.64435,-1.07591 1.78284,-0.13945 2.91514,-0.74492 4.12062,-2.20402 1.08087,-1.30832 3.62086,-0.80473 3.62086,0.71783 0,0.27526 -0.32618,0.26927 -0.72484,-0.0141 -0.39867,-0.28258 -1.06818,0.26758 -1.48781,1.22262 -0.6575,1.49649 -0.65678,1.61827 0.005,0.88096 0.59085,-0.65795 0.6803,-0.43228 0.38745,0.97754 -0.22779,1.09657 -0.1017,2.16018 0.31382,2.64721 1.03508,1.21324 1.9066,0.98501 0.9651,-0.25274 -0.61063,-0.80277 -0.29717,-0.93459 1.26638,-0.53251 1.14923,0.29554 2.5199,0.0245 3.06693,-0.60669 0.7487,-0.86374 1.1816,-0.84584 1.78135,0.0735 0.63889,0.97951 0.8735,0.87111 1.21186,-0.55982 0.23077,-0.97598 0.38094,-2.11182 0.33369,-2.52408 -0.0472,-0.41228 0.25901,-0.74956 0.68055,-0.74956 0.42156,0 0.85927,-0.5144 0.97271,-1.14305 0.11343,-0.62862 0.92049,-1.28372 1.79345,-1.45564 0.87295,-0.17196 1.85919,-0.99982 2.19165,-1.83972 0.33248,-0.8399 0.80181,-1.19675 1.04296,-0.79304 0.24118,0.40368 0.28559,-0.053 0.0988,-1.01493 -0.41821,-2.15309 0.61657,-2.35438 1.0627,-0.20683 0.28352,1.36495 0.43712,1.34712 1.33558,-0.155 0.95912,-1.60341 1.01564,-1.59201 1.02346,0.2066 0.006,1.59513 0.0933,1.66081 0.53275,0.40476 0.78184,-2.23483 0.67027,-2.7216 -0.77778,-3.39297 -0.91834,-0.42581 -1.29275,-1.2504 -1.23299,-2.71569 0.0953,-2.33427 1.97984,-4.07925 4.15126,-3.84354 2.02399,0.21978 3.81074,-1.06647 3.81074,-2.74313 0,-1.07928 0.53773,-1.396 2.02886,-1.19487 2.1805,0.294 5.84887,-0.8309 7.16852,-2.19835 0.65535,-0.67901 0.6033,-0.85582 -0.2705,-0.91855 -0.59514,-0.0424 -2.29934,-0.28852 -3.78716,-0.54618 -4.60051,-0.79667 -10.71991,-0.77168 -12.92748,0.053 -1.5155,0.56603 -2.00126,0.47077 -1.73023,-0.33933 0.23274,-0.69569 0.0865,-0.92044 -0.38278,-0.58783 -0.44503,0.31547 -1.16318,-0.59939 -1.73413,-2.20911 -0.69707,-1.96525 -0.78871,-2.86188 -0.32187,-3.14943 0.43835,-0.26986 0.33236,-0.86597 -0.32279,-1.81541 -0.88914,-1.28841 -0.83183,-1.36735 0.6476,-0.8925 0.89268,0.28656 1.31873,0.25598 0.94678,-0.0681 -1.37016,-1.1932 -0.61554,-2.42123 1.48769,-2.42123 1.36617,0 2.16711,0.46062 2.17235,1.24926 0.005,0.91928 0.13116,0.89109 0.47339,-0.10673 0.29223,-0.85194 0.59159,-0.97792 0.80539,-0.3389 0.3632,1.08556 1.05192,1.00114 2.74289,-0.33618 0.57986,-0.45857 1.85452,-0.86383 2.83256,-0.90055 2.24234,-0.0841 2.97036,-2.56523 0.75269,-2.56523 -0.87708,0 -1.68319,-0.64988 -1.85961,-1.49913 -0.21015,-1.01158 0.0264,-1.49915 0.72677,-1.49915 0.57099,0 1.23288,-0.56217 1.47084,-1.24926 0.62044,-1.7916 2.82526,-3.91376 3.39289,-3.26565 0.26491,0.30239 0.63454,0.093 0.82146,-0.46592 0.18689,-0.55855 1.01164,-1.01573 1.83276,-1.01573 0.82111,0 2.81528,-0.73038 4.43149,-1.62295 2.55104,-1.4091 2.78026,-1.73281 1.73813,-2.45488 -0.66023,-0.45741 -5.17767,-0.77076 -10.03876,-0.69625 -4.86108,0.0751 -9.15644,-0.22755 -9.54524,-0.67143 -0.40259,-0.45965 -0.86625,-0.33077 -1.07707,0.29938 -0.43474,1.29934 -17.25307,2.28442 -17.67109,1.0349 -0.14695,-0.43923 -0.64497,-0.53079 -1.10673,-0.20329 -0.56864,0.40307 -0.64347,0.81905 -0.23191,1.28886 0.33421,0.38159 -0.1323,0.69378 -1.03669,0.69378 -0.90438,0 -1.64434,-0.42986 -1.64434,-0.95528 0,-0.5254 -0.37107,-0.38625 -0.82463,0.30904 -0.45351,0.69531 -0.99766,0.94449 -1.2092,0.55371 -0.21153,-0.3908 0.2204,-1.56122 0.95987,-2.60097 l 1.34446,-1.890617 -1.35256,0.48031 c -1.18524,0.420857 -1.2187,0.362787 -0.2705,-0.46946 1.56034,-1.36937 4.12461,-1.22768 5.62778,0.31116 1.46506,1.499757 3.29909,1.005567 3.29909,-0.88897 0,-0.87269 1.06829,-1.26471 3.51664,-1.29025 2.20642,-0.0235 3.51665,0.37236 3.51665,1.06133 0,0.60396 0.30432,0.36114 0.67626,-0.53958 0.4885,-1.18295 1.9533,-1.81584 5.27497,-2.27909 2.52928,-0.35278 6.13542,-1.27586 8.01364,-2.05131 1.87825,-0.7754 4.1911,-1.45314 5.13973,-1.50591 0.9486,-0.053 2.94204,-0.71003 4.42986,-1.46058 2.53663,-1.279556 2.25021,-1.330675 -4.59871,-0.819384 -4.01708,0.299825 -7.66898,0.552534 -8.11532,0.561564 -0.44634,0.009 -6.04592,1.07068 -12.4435,2.35909 -6.39759,1.28853 -13.37241,2.48012 -15.49958,2.64796 -2.127172,0.16796 -3.756162,0.64257 -3.619972,1.0548 0.1362,0.41226 -0.80145,0.75143 -2.08364,0.75357 -1.28219,0 -4.522423,0.65569 -7.200473,1.45192 -4.592345,1.365507 -15.394986,2.773677 -13.927942,1.815497 0.373809,-0.24404 0.542026,-0.855177 0.373839,-1.357877 -0.168194,-0.50269 0.378067,-0.93563 1.213916,-0.96206 0.835865,-0.0257 2.37186,-0.90136 3.413315,-1.94448 1.041478,-1.04302 2.380495,-2.31589 2.975632,-2.82847 1.956109,-1.68501 33.865025,-11.436513 41.388205,-12.648368 2.23168,-0.359493 8.68337,-1.544584 14.33706,-2.63331 5.65369,-1.088819 13.11586,-2.416028 16.58259,-2.949391 3.46675,-0.533549 7.4746,-1.621214 8.90633,-2.417112 1.88077,-1.045591 2.70667,-1.137861 2.9762,-0.332259 0.34172,1.021448 6.03367,0.741787 12.92308,-0.634843 1.04146,-0.208246 4.32817,-0.659388 7.30379,-1.002815 5.33934,-0.616186 13.47413,-2.689351 18.02738,-4.594209 1.28577,-0.537859 2.56565,-0.717854 2.84417,-0.399891 0.27853,0.318035 4.04794,-0.41287 8.37646,-1.624136 6.40442,-1.792234 8.10059,-1.974489 9.10807,-0.978315 1.01306,1.001495 2.3105,0.833467 7.13954,-0.924492 8.03854,-2.926422 18.52801,-6.730834 23.75521,-8.615832 2.38049,-0.858463 5.83896,-2.198745 7.68549,-2.978295 1.84652,-0.779618 4.1594,-1.415262 5.13971,-1.4126 0.98031,0 2.87795,-0.642686 4.21699,-1.434342 2.25666,-1.334111 6.87699,-2.815142 19.20628,-6.156367 6.33397,-1.716501 7.60992,-2.112671 14.06658,-4.367315 2.9756,-1.039044 7.8448,-2.631427 10.82042,-3.53872 2.97562,-0.907271 6.14062,-1.872607 7.03329,-2.145225 6.31706,-1.928532 7.52009,-1.892725 8.77645,0.261685 0.67785,1.162435 1.23246,2.624102 1.23246,3.248132 0,0.624052 0.18259,1.081423 0.40578,1.01636 0.22316,-0.06454 0.96211,-0.06454 1.64209,0 1.03387,0.0987 1.14774,0.424108 0.69531,1.985748 -0.66232,2.286161 -0.13251,3.519264 0.85895,1.999269 1.11553,-1.710233 0.8615,-0.171948 -0.42189,2.55473 -0.67322,1.430267 -2.02534,2.712649 -3.26962,3.100997 -1.81672,0.567023 -2.02402,0.879567 -1.4423,2.174363 0.87309,1.9433 0.13549,2.063862 34.80454,-5.685263 2.38049,-0.532113 6.64104,-1.183115 9.46789,-1.446711 2.82683,-0.263595 7.93949,-0.952709 11.36145,-1.531322 3.42196,-0.578521 7.92598,-1.23009 10.00892,-1.447865 2.08292,-0.217663 4.74989,-0.861832 5.92659,-1.431353 1.17671,-0.569424 5.84488,-1.063072 10.37369,-1.09685 4.52885,-0.03368 8.55701,-0.261828 8.9515,-0.506839 0.97351,-0.604549 13.65141,-1.831406 16.6681,-1.612994 1.33391,0.09682 2.79764,0.7979 3.2527,1.558627 1.01959,1.704556 3.61639,1.875411 15.69238,1.032756 5.55108,-0.387503 10.64899,-1.268414 12.3229,-2.129537 2.18422,-1.12366 5.80707,-1.431259 15.41913,-1.309095 6.91026,0.08833 18.40715,-0.179737 25.54864,-0.594442 14.47234,-0.840537 13.69857,-0.850079 28.67417,0.350822 9.69586,0.777501 15.28944,0.809772 23.80498,0.137332 1.48779,-0.117548 2.27903,-0.419326 1.75831,-0.670718 -0.52073,-0.251275 -0.94679,-0.92713 -0.94679,-1.50169 0,-0.689187 1.51864,-0.846613 4.46344,-0.462552 2.45488,0.320248 9.81954,1.037985 16.36592,1.595043 6.54635,0.557131 14.94572,1.474296 18.66524,2.038162 14.9434,2.265505 20.64248,3.063945 28.40364,3.979153 19.41009,2.289201 29.64218,3.201326 40.30617,3.593185 4.90977,0.180421 10.99624,0.634557 13.52555,1.008986 2.52925,0.374522 6.30289,0.640589 8.38584,0.591262 2.08291,-0.04853 6.22174,0.352613 9.19738,0.893302 2.9756,0.540687 12.61258,1.181113 21.41533,1.423226 8.80283,0.242088 17.0805,0.878506 18.39474,1.41427 1.31435,0.535744 4.30237,1.217697 6.64015,1.515402 2.33779,0.297705 5.01588,0.772646 5.95124,1.055417 3.19893,0.96694 8.19323,1.62437 15.49678,2.039927 6.43145,0.365852 12.68052,1.244032 21.91135,3.079327 1.48785,0.295678 3.5573,0.663227 4.59868,0.81658 1.04148,0.153573 3.71955,0.567562 5.95124,0.920414 2.23178,0.352872 6.00504,0.916645 8.3852,1.252982 2.38005,0.336149 4.4495,0.749843 4.59865,0.919191 0.14923,0.169365 1.65584,0.579603 3.34807,0.912028 1.69224,0.332285 3.4335,0.856979 3.86922,1.165989 0.43586,0.308944 2.94672,0.695666 5.57954,0.859454 7.23129,0.449643 7.22175,0.446884 7.22175,2.062306 0,0.824517 0.25782,1.499121 0.57291,1.499121 0.31517,0 0.39697,-0.526129 0.18176,-1.169169 -0.26674,-0.79731 -0.0907,-0.956316 0.55338,-0.499769 0.51956,0.368302 1.48142,0.669565 2.13772,0.669565 0.80526,0 1.21971,0.649705 1.2746,1.99882 0.0975,2.389174 -0.19611,2.503824 -1.28104,0.499677 -1.13241,-2.09187 -2.3993,-1.935102 -2.01875,0.249886 0.18736,1.076216 0.12879,1.319363 -0.15225,0.632109 -0.31131,-0.761151 -1.83533,-0.904089 -4.78499,-0.448584 -5.07739,0.783955 -8.90983,0.568179 -15.96011,-0.89853 -2.82686,-0.588061 -6.47877,-1.311048 -8.1154,-1.606705 -1.63661,-0.295513 -3.25983,-0.708833 -3.60709,-0.918672 -0.34732,-0.209643 -0.77328,0.300815 -0.94634,1.134331 -0.23322,1.122599 -0.74695,1.340399 -1.98077,0.839735 -1.93801,-0.786311 -3.18365,-1.085263 -8.34388,-2.002781 -2.08301,-0.370376 -3.93285,-0.838838 -4.11085,-1.041 -0.37926,-0.43075 -7.61554,-0.501558 -17.53005,-0.171264 -6.29054,0.209406 -10.72579,-0.362766 -14.03504,-1.810303 -1.86468,-0.815587 -14.90964,-1.168462 -14.90964,-0.40314 0,0.39353 1.64335,1.040386 3.65189,1.437545 2.00853,0.39723 4.13882,0.89945 4.73399,1.11631 4.17455,1.521053 15.35482,3.225774 24.34599,3.712282 2.08285,0.112832 4.04455,0.50943 4.35912,0.881549 0.52319,0.618847 17.09003,3.005266 17.97894,2.589921 0.21165,-0.09894 2.21074,0.134514 4.4425,0.519299 3.45023,0.594444 12.26134,1.790748 14.47237,1.964972 0.79932,0.06289 0.8936,1.352932 0.15997,2.190475 -0.52644,0.601039 -4.60478,0.739832 -8.29541,0.282229 -1.12696,-0.13968 -2.24682,-0.846024 -2.48874,-1.569485 -0.32713,-0.978695 -1.25683,-1.142152 -3.63176,-0.638307 -1.75566,0.372473 -3.35504,0.856083 -3.55421,1.074757 -0.19917,0.218838 -0.73144,-0.284538 -1.18282,-1.118336 -0.45138,-0.833727 -0.94951,-1.13089 -1.10699,-0.660117 -0.30556,0.913349 -11.22537,0.524365 -14.39024,-0.512585 -1.04146,-0.341283 -2.87716,-0.713239 -4.07943,-0.826568 -1.20226,-0.113321 -2.72386,-0.737971 -3.38136,-1.38803 -0.95596,-0.944984 -1.19561,-0.914408 -1.19561,0.152654 0,0.78546 -0.72334,1.442211 -1.75829,1.59655 -4.27792,0.637647 -10.26571,0.5772 -15.01332,-0.15148 -3.41474,-0.524081 -4.87263,-0.458572 -4.34392,0.195529 2.13266,2.637833 -1.86846,3.938801 -8.0996,2.633498 -5.52407,-1.157249 -6.51151,-1.218142 -8.89901,-0.548837 -1.23178,0.345358 -2.9592,0.271649 -3.83873,-0.163945 -2.31697,-1.146814 -14.36035,-3.177743 -19.72356,-3.325961 -2.52931,-0.06996 -6.18121,-0.434708 -8.11535,-0.810478 -1.93414,-0.375746 -5.8295,-0.914078 -8.65633,-1.196212 -2.82685,-0.282158 -9.52201,-1.174212 -14.87814,-1.982381 -5.35608,-0.808168 -13.32281,-1.771668 -17.7038,-2.140961 -7.13917,-0.601862 -8.00123,-0.498899 -8.31112,0.992829 -0.29471,1.418771 -1.23501,1.658056 -6.37164,1.62185 -3.31432,-0.02356 -7.12156,0.322251 -8.46059,0.768101 l -2.43461,0.810807 4.05768,1.114378 c 2.23172,0.612935 4.90979,1.102104 5.95124,1.086981 1.04146,-0.01644 5.302,0.669047 9.46788,1.520253 4.16587,0.851136 12.07833,2.049751 17.58322,2.663464 5.5049,0.61364 10.55048,1.330929 11.21235,1.594102 0.66196,0.263098 6.13981,0.916244 12.17302,1.451303 10.84328,0.961803 18.44108,1.746629 24.22456,2.50255 1.63662,0.213891 7.25089,0.844377 12.47629,1.401104 5.2254,0.556706 9.85118,1.212489 10.2794,1.45724 0.42838,0.244773 1.26567,0.785202 1.86083,1.200923 0.59509,0.415699 2.018,0.880558 3.16193,1.033298 1.14391,0.152869 2.36215,0.990636 2.7072,1.862171 0.49807,1.258448 1.90753,1.637822 6.84688,1.842976 3.42087,0.142283 6.46316,0.535056 6.76078,0.8729 0.29753,0.33794 2.36699,0.878346 4.59868,1.200901 10.66842,1.541996 21.3333,2.794456 26.23952,3.081466 2.97561,0.17432 9.30566,1.1019 14.06658,2.06184 4.76104,0.95987 10.8475,1.89449 13.52558,2.07698 18.53545,1.26276 33.33903,2.85305 41.11769,4.416967 2.67808,0.53848 7.37215,1.26825 10.4313,1.62173 3.05917,0.35356 5.69071,1.02732 5.84789,1.49712 0.15718,0.46998 -0.51968,0.89093 -1.50441,0.93564 -0.98464,0.0452 -2.47757,0.17336 -3.31753,0.28604 -0.84013,0.1126 -1.63321,-0.11165 -1.7626,-0.49828 -0.1294,-0.38663 -1.13482,-0.24414 -2.23433,0.31662 -1.11581,0.56916 -3.56381,0.72807 -5.54112,0.35984 -1.94825,-0.36293 -12.30685,-0.83582 -23.01906,-1.05108 -10.71224,-0.21507 -23.49386,-0.68158 -28.40363,-1.03645 -8.75148,-0.63265 -11.23138,-0.2457 -5.49043,0.8566 1.59257,0.3058 3.01334,0.77359 3.15725,1.03949 0.38593,0.71281 -1.59245,2.47631 -3.23352,2.88223 -1.91223,0.47306 -2.51563,1.73911 -0.8806,1.84757 0.71919,0.0476 4.47258,0.50585 8.34081,1.01817 3.86839,0.51233 11.47645,1.19721 16.90699,1.52205 8.92701,0.5339 9.87365,0.75841 9.87365,2.34213 0,2.19825 2.17807,2.71811 15.30409,3.65268 5.2929,0.37688 9.75047,1.06465 9.90572,1.52855 0.15515,0.4638 1.349,0.84338 2.65282,0.84338 4.44474,0 3.19877,2.75967 -2.26093,5.00805 -1.54115,0.63456 -3.6106,1.07103 -4.59871,0.96983 -6.58928,-0.67451 -4.86079,1.29327 2.53154,2.88205 2.97563,0.63962 7.11437,1.38073 9.19725,1.64694 2.08306,0.26625 5.85658,0.93235 8.38593,1.4802 2.52925,0.54797 7.64191,1.29287 11.36147,1.65528 4.5803,0.44637 6.93734,1.08175 7.30373,1.96867 0.29976,0.72563 2.23002,1.59983 4.32828,1.96038 2.08288,0.35789 4.03066,1.19984 4.32817,1.87098 0.29759,0.67119 2.31902,1.52372 4.49232,1.89452 2.17329,0.37091 4.49698,1.33484 5.16404,2.14214 0.7643,0.9251 3.10413,1.63047 6.32796,1.90761 6.95139,0.5976 12.39764,1.72383 12.69964,2.62615 0.31712,0.94826 -4.4201,2.30288 -5.14792,1.47196 -0.29843,-0.34072 -0.54259,-0.19316 -0.54259,0.32769 0,0.521 0.85219,1.24255 1.89357,1.60346 2.05616,0.71255 2.44495,1.95585 0.94687,3.02863 -1.76791,1.26601 0.70619,3.27124 6.26821,5.08027 4.6715,1.51947 7.62385,3.3974 5.47191,3.48079 -2.02252,0.0785 1.09975,1.84007 4.35016,2.45441 1.92968,0.36473 3.79153,1.09697 4.13734,1.62713 0.34581,0.53025 2.16853,1.42214 4.05046,1.98201 5.22912,1.55565 5.17257,2.80555 -0.16177,3.58003 -1.99302,0.28935 -3.81527,1.14668 -4.36327,2.05277 -0.7687,1.27132 -1.70889,1.42343 -5.13957,0.83156 -6.97614,-1.20354 -8.35736,-0.96937 -9.40442,1.59469 -0.51234,1.25489 -0.82617,2.59622 -0.69767,2.98074 0.12868,0.38448 1.87469,1.01386 3.88007,1.3986 2.00539,0.38473 3.8897,1.05251 4.1873,1.48401 0.29751,0.43149 1.69743,1.10253 3.11073,1.49124 3.87916,1.06672 3.08305,2.4786 -1.39754,2.4786 -2.18219,0 -4.15183,0.33732 -4.37711,0.74959 -0.22519,0.41221 -2.49454,0.74955 -5.04279,0.74955 -3.22217,0 -4.70413,0.38047 -4.86535,1.24928 -0.1591,0.85616 0.42051,1.25103 1.84178,1.25486 1.14063,0.001 2.92605,0.41814 3.96743,0.92233 1.04154,0.50428 3.9544,1.20135 6.47304,1.54912 2.51874,0.34777 4.85408,1.05313 5.18953,1.56755 0.33545,0.51438 0.75183,0.67316 0.92524,0.35292 0.17323,-0.32026 0.88135,-0.20864 1.57323,0.24797 0.97145,0.64101 0.39495,0.97529 -2.52909,1.46685 -3.45049,0.58007 -7.386,2.03861 -9.46783,3.50899 -1.3211,0.93308 0.7335,1.95869 6.89796,3.44331 3.04996,0.73452 5.5455,1.60231 5.5455,1.92832 0,0.32605 1.5826,0.40669 3.51676,0.17924 2.82614,-0.33246 3.51658,-0.1266 3.51658,1.04702 0,1.81157 -1.71238,4.774 -2.74779,4.75342 -0.63607,-0.0157 -0.62865,-0.18258 0.0422,-0.98412 0.69051,-0.82444 0.66797,-0.97111 -0.15225,-0.98414 -0.53003,-0.008 -1.10882,0.68267 -1.28599,1.53572 -0.2745,1.32148 -1.25272,1.4736 -6.61052,1.02838 -6.71392,-0.55802 -8.36415,0.10352 -7.12719,2.85653 2.07165,4.61124 10.51965,9.55541 16.32712,9.55541 3.50869,0 5.34112,1.21225 5.34112,3.53319 0,1.16176 -0.86549,1.45905 -4.19298,1.44012 -2.30619,-0.01 -5.16679,-0.49752 -6.35701,-1.07646 -1.19031,-0.57893 -6.79824,-1.25637 -12.46225,-1.50538 -10.01621,-0.44035 -10.3007,-0.39773 -10.38035,1.55651 -0.0788,1.922 0.58201,3.30628 1.7428,3.65325 0.29751,0.089 2.63156,0.8894 5.18678,1.77877 8.36212,2.91072 15.78699,4.68374 23.38619,5.58473 7.04057,0.8347 9.44171,1.97932 8.71417,4.1539 -0.16617,0.49634 -0.53462,0.63684 -0.81902,0.31218 -0.2844,-0.32466 -0.45021,0.004 -0.36836,0.73327 0.0825,0.73202 -0.27175,1.26236 -0.79225,1.18658 -0.51757,-0.0752 -0.82406,0.21271 -0.68118,0.63994 0.14317,0.42736 -0.56632,1.06341 -1.57653,1.41348 -2.18328,0.75665 -2.70104,2.55815 -1.58286,5.50745 0.59602,1.57158 0.65954,2.50868 0.23445,3.45486 -0.69712,1.5516 -0.24187,2.61347 1.12065,2.61347 0.54543,0 0.99178,0.18825 0.99178,0.41798 0,0.22991 0.16149,1.19597 0.35919,2.1468 0.32995,1.58828 -0.033,1.67495 -4.46353,1.06607 -2.65228,-0.3645 -5.73542,-0.93003 -6.8514,-1.25673 -1.61457,-0.47267 -2.02885,-0.27572 -2.02885,0.96487 0,0.85735 -0.39237,1.9645 -0.87199,2.46036 -1.23852,1.28039 -0.49493,7.03895 1.05833,8.19627 1.11047,0.82751 1.1146,0.87543 0.0844,1.00269 -1.08206,0.13345 -1.08206,0.13345 0,0.99251 1.05549,0.83785 -0.41886,1.19597 -5.95117,1.44553 -2.30775,0.1041 -4.05778,1.44937 -4.05778,3.11923 0,0.89235 -0.56047,1.43692 -1.48782,1.44541 -0.81829,0.008 -2.04131,0.28758 -2.71763,0.62236 -1.15364,0.57095 -1.17051,0.69215 -0.27056,1.95342 0.52765,0.73959 1.62539,1.35901 2.43946,1.37647 0.81388,0.0176 3.08617,1.60593 5.04938,3.52976 1.98,1.94045 4.35713,3.49803 5.33866,3.49803 3.27863,0 8.39273,1.27244 8.14068,2.02549 -0.13739,0.41092 0.16424,0.68545 0.67036,0.61009 0.5062,-0.0751 1.00709,0.63799 1.11322,1.58522 0.24619,2.19903 -2.94832,5.99017 -4.59606,5.45429 -0.659,-0.21443 -1.28701,0.10097 -1.39506,0.70055 -0.25508,1.41385 -6.56929,1.81351 -9.09472,0.57575 -1.07253,-0.52565 -6.61126,-1.07758 -12.30828,-1.22656 -9.63161,-0.25184 -12.47178,0.25837 -8.87062,1.5936 0.81848,0.30341 2.58336,1.00948 3.92251,1.56906 1.33888,0.55955 3.46928,1.03696 4.73392,1.06089 1.26454,0.0241 2.29931,0.4933 2.29931,1.04296 0,0.5497 0.38119,0.99946 0.84707,0.99946 0.46587,0 1.34694,0.49411 1.95773,1.09801 1.09856,1.08607 1.09664,1.11084 -0.17085,2.27818 -2.21939,2.04413 -1.53163,3.97247 2.19832,6.16328 1.91373,1.12409 3.59365,2.69818 3.73287,3.498 0.1395,0.79979 0.46872,1.71496 0.73167,2.03375 0.82755,1.00305 -0.16305,4.08661 -1.09956,3.42273 -0.47321,-0.3355 -0.71123,-0.33411 -0.52866,0.004 0.18267,0.33723 -0.28166,1.74678 -1.03193,3.13235 -0.98647,1.82257 -2.00393,2.56496 -3.6789,2.68474 -1.27362,0.091 -2.21719,0.45964 -2.09694,0.81916 0.12025,0.35941 -2.11125,0.43315 -4.95911,0.16398 -4.1401,-0.3916 -5.35964,-0.1861 -6.08517,1.02533 -1.00764,1.68228 -6.3209,2.37579 -9.09251,1.18679 -1.05823,-0.45403 -1.8306,-0.31386 -2.06084,0.37392 -0.20227,0.60509 -0.94238,1.10012 -1.64435,1.10012 -1.62769,0 -2.98792,0.9587 -2.98792,2.1058 0,0.49082 0.35305,0.89246 0.78465,0.89246 0.4315,0 0.99132,0.68192 1.24365,1.51537 0.28486,0.94024 2.39977,2.21284 5.57237,3.35312 6.25088,2.24656 10.85235,5.68134 10.41718,7.77577 -0.16699,0.80446 -0.65019,1.21697 -1.07354,0.91684 -0.42344,-0.30012 -0.63388,-0.13932 -0.46762,0.35766 0.16626,0.49684 -0.33591,2.30452 -1.11607,4.01714 -1.04412,2.29205 -1.7054,2.94552 -2.50591,2.47611 -0.6028,-0.35334 -0.95191,-0.2318 -0.78317,0.27253 0.16736,0.50061 -0.54223,0.95452 -1.57727,1.0087 -1.03487,0.054 -3.59036,0.87213 -5.67906,1.81764 l -3.79758,1.71915 1.20855,2.37634 c 0.66468,1.30698 1.43364,2.37632 1.70871,2.37632 0.27514,0 1.33575,0.73247 2.35696,1.62765 1.78056,1.56074 1.82299,1.72279 1.0345,3.94557 -0.51803,1.46058 -0.62096,2.54763 -0.27827,2.93886 0.29916,0.34153 0.3877,1.08758 0.19688,1.65792 -0.22382,0.66911 -0.51491,0.55592 -0.82031,-0.31889 -0.30722,-0.87982 -0.61591,-0.99789 -0.87914,-0.33622 -0.22327,0.56089 -1.13623,1.67044 -2.02894,2.46574 l -1.6231,1.44594 1.71237,0.33971 c 1.85398,0.36777 2.84521,2.93241 1.50138,3.88499 -0.45414,0.32194 -0.96025,0.33679 -1.12477,0.0331 -0.16443,-0.30378 -1.10938,0.28854 -2.09979,1.31624 -0.99059,1.02771 -2.72623,2.18924 -3.85707,2.58112 -1.131,0.39192 -2.38391,1.31813 -2.78453,2.05827 -0.94919,1.75322 -1.32065,1.71457 -6.34775,-0.66053 -4.51162,-2.13152 -5.78335,-1.93284 -7.63439,1.19268 -1.04419,1.76306 -1.46556,1.8499 -4.29229,0.88457 -3.70807,-1.26626 -10.69373,-1.42844 -10.29575,-0.23907 0.15288,0.45726 2.05417,1.39077 4.22481,2.07452 5.53039,1.74204 6.15279,2.11625 5.24458,3.15309 -1.57417,1.79725 5.47482,6.03987 12.36394,7.4415 1.86024,0.3785 3.5003,1.04079 3.64447,1.47179 0.14426,0.431 -0.2484,1.98274 -0.87248,3.4483 -1.04807,2.4615 -1.06816,2.80047 -0.26317,4.44375 0.47939,0.97845 0.87163,2.02499 0.87163,2.32564 0,1.23514 -9.16135,-0.54217 -12.17305,-2.36161 -4.33073,-2.61624 -13.09985,-4.52574 -13.91016,-3.02894 -0.42847,0.7917 -0.43228,1.47155 -0.0135,2.40416 0.56579,1.25925 1.43339,1.79792 8.64844,5.36938 2.2501,1.1138 3.38137,2.17739 3.38137,3.17908 0,1.2659 -0.63836,1.39844 -4.01407,0.8333 -2.57184,-0.43046 -4.13857,-0.30045 -4.3602,0.36186 -0.19021,0.56863 -0.0473,1.03387 0.31723,1.03387 0.3647,0 0.53717,0.23272 0.38311,0.51727 -0.36268,0.67004 -8.02494,-2.30039 -8.78685,-3.40639 -0.59899,-0.8696 -8.49944,-3.11747 -10.18443,-2.89774 -0.52079,0.0679 -0.94681,0.68629 -0.94681,1.37428 0,0.68793 -0.12592,1.85703 -0.27981,2.59795 -0.26597,1.27996 6.34121,3.86771 17.72667,6.94282 1.71049,0.46198 3.99219,1.52095 5.0706,2.35331 1.07838,0.83231 2.72216,1.51582 3.65283,1.51887 2.45029,0.008 5.96951,1.98745 5.40101,3.03777 -0.26334,0.48638 -3.55807,1.01255 -7.32172,1.16926 -3.76358,0.15674 -6.80246,0.36113 -6.75305,0.45442 0.049,0.0933 1.293,1.04251 2.76337,2.1095 2.56068,1.85801 2.62184,1.99088 1.45172,3.14771 -0.9164,0.906 -1.89564,0.94079 -3.91888,0.13933 -3.29288,-1.30448 -3.72625,-1.32176 -3.72625,-0.14872 0,0.50602 0.72756,1.21524 1.61693,1.57606 2.95745,1.19998 2.317,2.50105 -1.23127,2.50105 -2.06508,0 -4.15336,0.63396 -5.16781,1.56877 -1.02646,0.94592 -2.17766,1.29009 -2.89962,0.86679 -1.54335,-0.90489 -26.94514,-1.25 -26.64809,-0.36202 0.62931,1.88108 -6.46808,1.87147 -12.52413,-0.0176 -12.26427,-3.82449 -22.69898,-5.99839 -29.43008,-6.13138 -3.71962,-0.0734 -9.31913,-0.75161 -12.44351,-1.50699 -3.1244,-0.75534 -8.69061,-1.83705 -12.36922,-2.40377 -3.67875,-0.56675 -6.84371,-1.20341 -7.03334,-1.4148 -0.18963,-0.21142 -2.17069,-0.67154 -4.40239,-1.02244 -2.23177,-0.35094 -4.90984,-0.82825 -5.95125,-1.06081 -2.16805,-0.48404 -12.03904,-1.50076 -19.20631,-1.97823 -5.18462,-0.34541 -13.06275,-1.26466 -18.39476,-2.14639 -1.78532,-0.29527 -8.72395,-0.72864 -15.41912,-0.96307 -6.69512,-0.23439 -14.60759,-0.79489 -17.58317,-1.24536 -2.97564,-0.45056 -11.20521,-0.77444 -18.28798,-0.71971 -10.71115,0.0824 -12.96402,0.34721 -13.39027,1.57243 -0.43491,1.24976 -0.58626,1.26168 -0.99887,0.0783 -0.32389,-0.92893 -1.02002,-1.19723 -2.08516,-0.80371 -0.88152,0.32566 -1.86461,0.0998 -2.1911,-0.50315 -0.32571,-0.60167 -1.39593,-1.1888 -2.37824,-1.30473 -0.98236,-0.11584 -2.27301,-0.47715 -2.86813,-0.80266 -3.2422,-1.77353 -6.62031,-2.28928 -7.98127,-1.21849 -1.09246,0.85959 -3.81932,-0.15596 -3.44256,-1.28199 0.13876,-0.41487 -2.46847,-0.87518 -5.79385,-1.02292 -8.95479,-0.39781 -9.88341,-0.57958 -10.89683,-2.13336 -0.82384,-1.26305 -0.90604,-1.20493 -0.74301,0.52493 0.12427,1.31846 -0.0781,1.83073 -0.62817,1.59005 -0.44635,-0.19529 -1.35933,-0.36395 -2.02883,-0.37479 -0.66953,-0.0157 -1.21732,-0.36515 -1.21732,-0.78726 0,-0.42221 -0.39227,-1.04568 -0.87174,-1.38557 -0.63303,-0.44874 -0.78291,-0.1902 -0.54723,0.94444 0.22365,1.07654 0.1162,1.31774 -0.34556,0.77581 -0.36853,-0.43262 -2.98292,-0.92778 -5.80976,-1.10036 -5.94497,-0.36301 -5.06127,-0.35828 -33.00234,-0.17651 -11.75371,0.0767 -22.87562,-0.1857 -24.71541,-0.58255 -1.83973,-0.39699 -3.75435,-0.43158 -4.2547,-0.0771 -0.92083,0.65271 -18.59471,1.94157 -24.02474,1.75191 -4.24652,-0.14814 -9.06259,4.46349 -6.38377,6.113 0.39933,0.24588 0.12311,0.95308 -0.67629,1.73207 -0.74309,0.72407 -1.48623,1.69611 -1.65147,2.16008 -0.59707,1.67696 -5.1911,2.61259 -6.49557,1.32293 -0.82208,-0.81272 -3.00044,-1.10464 -6.42602,-0.86109 -2.85035,0.20263 -12.21253,0.60578 -20.80486,0.89585 -8.59236,0.28996 -16.21369,0.80136 -16.93629,1.13638 -0.72263,0.33505 -3.79393,0.67801 -6.82514,0.76209 -3.03124,0.0843 -5.99823,0.65848 -6.59336,1.27634 -1.06484,1.1055 -6.08223,2.92011 -6.92221,2.50355 -1.03515,-0.51346 -2.95715,-0.38438 -4.70977,0.31623 -1.04146,0.41634 -2.38049,0.68159 -2.97563,0.5895 -0.5951,-0.0922 -1.56894,-0.2468 -2.16407,-0.34378 -0.59512,-0.0969 -3.39491,0.35182 -6.22175,0.99739 -2.82683,0.64556 -6.19225,1.1644 -7.47867,1.15297 -1.28643,-0.0156 -2.62548,0.40474 -2.97563,0.92487 -0.35016,0.52009 -1.4279,1.25815 -2.39498,1.64015 -1.43919,0.56846 -1.75831,0.38759 -1.75831,-0.99682 0,-1.49828 -0.44757,-1.61058 -3.92243,-0.98394 -2.15732,0.38902 -7.81775,0.81097 -12.57875,0.93766 -4.76099,0.12641 -9.96773,0.75863 -11.57057,1.40431 -1.60279,0.64565 -3.0325,1.17396 -3.17711,1.17396 -0.1446,0 0.0402,0.6746 0.4106,1.49914 0.37044,0.82452 1.49581,1.4991 2.50084,1.4991 1.00504,0 1.82732,0.18825 1.82732,0.41797 0,0.22993 0.14779,1.12937 0.32841,1.99886 0.45039,2.16815 -1.07294,2.06156 -2.27511,-0.15929 -0.68109,-1.25819 -1.00425,-1.39484 -1.1669,-0.4935 -0.12371,0.68561 -0.4476,0.9924 -0.71974,0.68169 -0.2721,-0.31047 -0.49476,-0.20091 -0.49476,0.24384 0,0.44474 -0.54779,0.8637 -1.2173,0.93111 -0.66952,0.0673 -4.38229,0.63158 -8.25059,1.2537 -3.8683,0.62212 -11.65902,1.31124 -17.3127,1.53143 -5.65369,0.22024 -10.88807,0.64687 -11.63198,0.94825 -2.52053,1.0212 -16.37874,3.38922 -23.80497,4.06772 -13.76054,1.25722 -24.19299,4.89281 -26.34417,9.18066 -0.6729,1.34124 -1.85851,2.42424 -2.70993,2.47537 -7.00115,0.42027 -16.72353,1.76715 -20.99043,2.90788 -1.78537,0.47731 -4.9174,1.14358 -6.96005,1.48067 -2.04265,0.33709 -4.93654,1.04118 -6.43085,1.5647 -1.49431,0.52351 -2.80545,0.95181 -2.91361,0.95181 -0.10817,0 -0.19667,-1.15088 -0.19667,-2.55751 z m 0,-9.09338 c 0,-1.09328 -0.23964,-1.17501 -1.06191,-0.36208 -0.63446,0.62725 -0.93567,1.65741 -0.74835,2.55921 0.24161,1.16311 0.48524,1.2462 1.06192,0.36209 0.41157,-0.63096 0.74834,-1.78263 0.74834,-2.55922 z m 91.16221,-14.86468 c 2.11662,-1.40246 2.06321,-1.42294 -2.43461,-0.93575 -10.29974,1.11568 -13.52556,1.6809 -13.52556,2.37002 0,1.30387 13.68354,0.0742 15.96017,-1.43427 z M 95.503498,445.60287 c 0,-0.216 -0.36518,-0.3928 -0.81153,-0.3928 -0.44635,0 -0.81154,0.43565 -0.81154,0.96803 0,0.53242 0.36519,0.7092 0.81154,0.3928 0.44635,-0.31642 0.81153,-0.75204 0.81153,-0.96803 z m 39.224112,-3.39107 c 0.18884,-0.56449 -0.25425,-0.99944 -1.0182,-0.99944 -0.7439,0 -1.50303,0.44976 -1.68693,0.99944 -0.18885,0.56446 0.25425,0.99944 1.01819,0.99944 0.74392,0 1.50303,-0.44976 1.68694,-0.99944 z m -25.69856,-5.11366 c 0,-1.0312 -0.6478,-1.12796 -1.84933,-0.27626 -1.35758,0.96238 -0.99321,2.16302 0.49677,1.63682 0.7439,-0.26268 1.35256,-0.87492 1.35256,-1.36056 z m 306.12967,-0.16261 c 1.84609,-0.94993 2.09958,-1.31487 1.19,-1.71314 -1.44364,-0.63205 -18.65694,0.70366 -27.8818,2.16367 -2.50675,0.39673 16.85236,1.36539 20.82935,1.04229 1.93417,-0.15713 4.57225,-0.82896 5.86245,-1.49282 z m 18.75405,-3.07587 c 0.59514,-0.26007 -0.50045,-0.43626 -2.4346,-0.39147 -4.61645,0.10684 -6.44387,1.02508 -3.51665,1.76696 1.19025,0.30164 2.77276,0.22188 3.51665,-0.1771 0.74391,-0.39904 1.83949,-0.93835 2.4346,-1.19845 z m -345.263057,0.2936 c 1.11399,-0.0601 1.106746,-0.11232 -0.144198,-1.03548 -1.47506,-1.08864 -2.740415,-0.54639 -2.740415,1.17444 0,0.62684 0.384279,0.86528 0.85578,0.53107 0.470674,-0.33366 1.383651,-0.63514 2.028833,-0.67003 z m 353.390527,-1.12501 c 0.1447,-0.26732 -0.81831,-0.5616 -2.14001,-0.65394 -1.32173,-0.0924 -2.57135,0.33492 -2.77696,0.94946 -0.26275,0.78533 0.37315,0.97964 2.14001,0.6539 1.38263,-0.25486 2.63226,-0.68211 2.77696,-0.94942 z m 423.0671,-11.80409 c 0.20701,-0.61891 -0.65626,-0.95441 -2.26743,-0.88118 -2.30974,0.10469 -2.41963,0.2037 -0.97873,0.88118 2.36743,1.11277 2.87385,1.11277 3.24616,0 z M 31.223321,406.5494 c -0.390556,-0.28871 -0.857176,-0.2532 -1.036951,0.0791 -0.179785,0.33211 0.139753,0.56832 0.710084,0.52492 0.630265,-0.0479 0.758455,-0.28476 0.326867,-0.60379 z m 6.390816,-1.31614 c 1.087323,-0.64327 1.140368,-0.80595 0.270521,-0.82957 -0.595136,-0.0176 -1.568967,0.35717 -2.164093,0.82957 -1.378645,1.09439 0.04371,1.09439 1.893572,0 z m 7.259557,0.39282 c 0.470682,-0.33372 0.855781,-1.41525 0.855781,-2.40348 0,-1.5309 -0.340294,-1.71827 -2.299345,-1.26597 -2.486026,0.57401 -4.108295,2.27723 -2.168971,2.27723 0.637076,0 1.308787,0.4497 1.492698,0.9994 0.384863,1.15037 0.913049,1.24826 2.119837,0.39282 z M 923.8082,388.24302 c 0,-0.54966 -0.426,-0.9925 -0.94669,-0.98408 -0.80912,0.0156 -0.82883,0.15596 -0.13528,0.98408 1.02102,1.21894 1.08197,1.21894 1.08197,0 z M 58.27441,347.58337 c -0.390545,-0.2887 -0.857188,-0.25318 -1.036952,0.079 -0.179771,0.33208 0.139765,0.56829 0.710099,0.52493 0.63025,-0.0483 0.758453,-0.2848 0.326853,-0.60383 z m -4.429609,-2.9159 c 0,-1.62898 -1.504706,-1.81214 -3.48142,-0.4238 -2.151952,1.51135 -1.641239,2.5749 1.046821,2.17999 1.633295,-0.23995 2.434599,-0.818 2.434599,-1.75619 z m 10.049262,0.72096 c -0.540232,-1.61472 -2.474946,-2.0265 -2.474946,-0.52677 0,0.84164 0.555464,1.40557 1.38448,1.40557 0.761464,0 1.252176,-0.39546 1.090466,-0.8788 z m -4.098018,-1.12006 c 0.603644,-0.72057 0.291819,-0.97271 -1.217307,-0.9841 -1.115847,-0.008 -2.028821,0.43444 -2.028821,0.9841 0,1.27299 2.17983,1.27299 3.246128,0 z M 961.67981,227.33578 c 0,-0.54968 -0.24343,-0.99942 -0.54112,-0.99942 -0.2975,0 -0.54085,0.44974 -0.54085,0.99942 0,0.54966 0.24335,0.9994 0.54085,0.9994 0.29769,0 0.54112,-0.44974 0.54112,-0.9994 z m 3.92241,-18.65155 c -0.37202,-0.27723 -0.9806,-0.27723 -1.35244,0 -0.37211,0.2773 -0.0678,0.50412 0.67614,0.50412 0.74404,0 1.04824,-0.22685 0.6763,-0.50412 z m -8.11529,-12.03648 c -0.66953,-0.23821 -1.76507,-0.23821 -2.4346,0 -0.66944,0.23819 -0.12172,0.43313 1.21725,0.43313 1.33907,0 1.88679,-0.1951 1.21735,-0.43313 z m -25.02221,-8.06805 c 0,-0.42785 -2.00859,-1.31131 -4.46354,-1.96319 -2.45486,-0.65187 -5.0493,-1.49697 -5.7653,-1.87799 -0.80847,-0.43023 -1.17647,-0.31805 -0.97106,0.29599 0.18201,0.54387 2.47198,1.56102 5.08897,2.26034 2.61709,0.69928 5.00164,1.414 5.29933,1.58824 0.29743,0.17435 0.60189,0.35231 0.67623,0.39571 0.0751,0.0433 0.13537,-0.27118 0.13537,-0.6991 z m -789.08076,-9.21623 c 0.96616,-0.76701 0.92613,-0.8665 -0.37384,-0.92921 -0.80074,-0.0386 -1.60636,0.37949 -1.79026,0.92921 -0.39918,1.19315 0.66101,1.19315 2.1641,0 z M 928.67749,173.508 c 0,-0.47209 -2.4434,-1.37159 -5.42957,-1.99887 -6.72647,-1.41291 -7.93428,-1.44143 -7.24661,-0.17103 0.28863,0.53322 3.19799,1.3698 6.46517,1.85918 3.26728,0.48934 6.0014,0.95259 6.07573,1.02941 0.0742,0.0768 0.13528,-0.24656 0.13528,-0.71861 z M 113.03098,161.54037 c 0.15325,-0.45808 -0.0758,-0.83288 -0.50909,-0.83288 -0.43324,0 -0.78772,0.3748 -0.78772,0.83288 0,0.45808 0.22909,0.83283 0.50907,0.83283 0.28,0 0.63448,-0.37475 0.78774,-0.83283 z m 72.38363,-1.8487 c -0.39056,-0.28873 -0.8572,-0.25325 -1.03697,0.0787 -0.17977,0.33209 0.13976,0.56832 0.71008,0.52493 0.63028,-0.0483 0.75847,-0.2848 0.32689,-0.60382 z m -83.95987,-1.31614 c 0,-0.54971 -0.42605,-0.99256 -0.94677,-0.98415 -0.809162,0.0117 -0.828822,0.15594 -0.13527,0.98415 1.02102,1.2189 1.08204,1.2189 1.08204,0 z m 2.16409,-1.55813 c 0,-0.24241 -0.24347,-0.44073 -0.54103,-0.44073 -0.29755,0 -0.54101,0.4763 -0.54101,1.05838 0,0.58217 0.24346,0.78047 0.54101,0.44076 0.29756,-0.33973 0.54103,-0.81601 0.54103,-1.05841 z m 30.83827,-6.95864 c 0.74388,-0.38416 3.05677,-1.07382 5.13971,-1.53255 2.08292,-0.45876 4.63925,-1.30955 5.68072,-1.89054 1.04146,-0.58104 1.89358,-1.01883 1.89358,-0.97287 0,0.38309 3.70584,-1.75547 5.54547,-3.20017 2.7911,-2.19196 2.96737,-3.87555 0.40576,-3.87555 -1.32248,0 -1.89359,-0.45214 -1.89359,-1.49918 0,-1.53693 2.42141,-2.14456 6.44079,-1.61617 1.75103,0.23015 6.74703,-1.49231 7.89086,-2.72054 0.85436,-0.91731 -1.87592,-1.95169 -5.43744,-2.0599 -2.31698,-0.0709 -4.29123,0.63329 -6.73011,2.3989 -1.8982,1.37423 -3.95292,2.50547 -4.56601,2.51388 -0.88787,0.0141 -0.95481,0.20211 -0.32901,0.93344 0.43212,0.50507 0.97991,0.69642 1.21728,0.42543 0.2374,-0.27099 0.43162,-0.0671 0.43162,0.45223 0,0.89488 -1.18426,1.52669 -5.31652,2.83677 -0.98994,0.31379 -1.93133,1.20337 -2.09202,1.97692 -0.23888,1.14987 -0.44705,1.17385 -1.14179,0.13144 -0.71158,-1.06767 -0.79788,-1.01891 -0.531,0.29992 0.2331,1.15211 0.005,1.52998 -0.8455,1.40793 -0.64027,-0.0916 -1.97196,0.2411 -2.95934,0.73974 -1.24493,0.62876 -2.03269,0.54255 -2.56986,-0.281 -0.43567,-0.66787 -0.77464,-0.75611 -0.77464,-0.2014 0,1.1025 -4.12223,4.25587 -5.56355,4.25587 -0.51081,0 -0.9287,0.61479 -0.9287,1.36636 0,1.01728 0.72547,1.29519 2.84036,1.08792 1.56221,-0.15312 3.449,-0.59258 4.19293,-0.97686 z m 22.25587,-36.24525 c -0.39033,-0.24035 -0.96691,0.0379 -1.28129,0.61903 -0.40148,0.74158 -0.19026,0.87163 0.70965,0.4369 0.73157,-0.35339 0.97683,-0.80638 0.57164,-1.05593 z m 653.47954,-3.95991 c 0,-0.41226 -0.7397,-0.84513 -1.64254,-0.96195 -0.93944,-0.12179 -1.50373,0.19883 -1.31955,0.74954 0.37722,1.12736 2.96367,1.31289 2.96209,0.21248 z m -651.93045,-6.29613 1.35255,-0.0768 -1.26198,-0.93441 c -1.42565,-1.05565 -3.87773,-0.24244 -3.87773,1.28591 0,0.55725 0.54412,0.73828 1.21731,0.40503 0.6695,-0.33144 1.82594,-0.63722 2.56985,-0.67965 z m 647.60334,0.21625 c 0,-0.45805 -0.36519,-0.83286 -0.8115,-0.83286 -0.44638,0 -0.81158,0.37481 -0.81158,0.83286 0,0.45803 0.3652,0.83283 0.81158,0.83283 0.44631,0 0.8115,-0.3748 0.8115,-0.83283 z m 2.26552,0.14982 c -0.39055,-0.28869 -0.85713,-0.25316 -1.03693,0.0785 -0.17987,0.33216 0.13977,0.56836 0.7101,0.52492 0.63026,-0.0476 0.75838,-0.28479 0.32683,-0.60377 z m -640.57003,-1.9988 c -0.39056,-0.2888 -0.8572,-0.25319 -1.03699,0.0787 -0.17975,0.3321 0.13978,0.56837 0.7101,0.52486 0.63027,-0.0476 0.75846,-0.28468 0.32689,-0.6037 z m -60.69592,-1.31619 c 0,-0.549607 -0.24346,-0.999367 -0.54103,-0.999367 -0.29755,0 -0.54102,0.44976 -0.54102,0.999367 0,0.54974 0.24347,0.99947 0.54102,0.99947 0.29757,0 0.54103,-0.44973 0.54103,-0.99947 z m 14.06657,-2.620817 c 0,-1.11977 -1.01605,-0.1378 -1.30706,1.26313 -0.28494,1.371567 -0.20577,1.433427 0.48314,0.37723 0.45315,-0.69467 0.82392,-1.4329 0.82392,-1.64036 z m 5.4102,0.1225 c 0,-0.82452 -0.0958,-1.49915 -0.21261,-1.49915 -0.11694,0 -0.35276,0.67463 -0.52405,1.49915 -0.17127,0.82451 -0.0757,1.49914 0.21263,1.49914 0.28823,0 0.52403,-0.67463 0.52403,-1.49914 z M 834.64106,63.746787 c -0.39061,-0.288778 -0.85721,-0.253162 -1.03699,0.0789 -0.17981,0.332071 0.13976,0.568367 0.71009,0.524856 0.63027,-0.04782 0.75846,-0.2847 0.3269,-0.6037 z M 336.50572,43.510417 c 0.17119,-0.511686 0.0894,-1.183655 -0.1819,-1.493277 -0.27123,-0.309744 -0.63275,0.109055 -0.80337,0.930308 -0.33636,1.619189 0.4765,2.083696 0.98527,0.562969 z M 79.706457,472.44438 c -0.311371,-0.68709 -0.35371,-1.26299 -0.09409,-1.27968 0.259606,-0.0176 0.01672,-0.51902 -0.539686,-1.11619 -1.427408,-1.53196 -0.162836,-2.84518 2.634757,-2.73618 1.461131,0.0569 1.812623,0.29544 1.082056,0.73425 -1.030849,0.61918 -1.799282,3.16354 -0.946802,3.13489 1.588551,-0.0536 2.73578,-1.35974 2.488259,-2.83328 -0.241668,-1.43874 -0.177131,-1.42604 0.502853,0.0986 0.924033,2.07178 5.04105,2.45299 5.396922,0.49976 0.180768,-0.99212 0.400737,-0.98541 1.068678,0.0331 1.053164,1.60536 1.674664,5.50613 0.780134,4.89653 -0.348532,-0.23752 -0.554815,-1.03766 -0.458416,-1.77801 0.122588,-0.94146 -0.125744,-0.84294 -0.825945,0.32763 -0.799568,1.33669 -1.960075,1.63299 -5.76191,1.4711 -3.023273,-0.12876 -4.967304,-0.65867 -5.326802,-1.452 z m -7.4268,-2.20292 c -0.720693,-0.82282 -0.374111,-3.04406 0.474965,-3.04406 0.617151,0 1.158964,2.82209 0.652769,3.39999 -0.224386,0.25623 -0.731868,0.0961 -1.127734,-0.35593 z m 11.446909,-8.04119 c -0.598403,-1.77006 -0.535885,-2.01627 0.54614,-2.1511 0.672036,-0.0838 1.587066,-0.22566 2.033414,-0.31545 1.443213,-0.29037 1.714754,0.62285 0.762925,2.56579 -1.202432,2.45441 -2.492112,2.41614 -3.342479,-0.0994 z m 327.733794,-7.43669 c 0,-0.24241 0.24347,-0.71867 0.54102,-1.0584 0.29757,-0.33973 0.54104,-0.14167 0.54104,0.44074 0,0.58209 -0.24347,1.0584 -0.54104,1.0584 -0.29755,0 -0.54102,-0.19832 -0.54102,-0.44074 z m 6.34799,-0.68272 c 0.36699,-0.683 0.80354,-0.99011 0.97012,-0.68238 0.16657,0.3077 -0.13369,0.86658 -0.66725,1.24184 -0.77107,0.54236 -0.83321,0.42763 -0.30287,-0.55946 z m -290.38454,-2.7519 c 0,-0.48234 0.37549,-1.45275 0.83445,-2.15635 0.64874,-0.99461 0.97888,-1.01257 1.48329,-0.0806 0.50442,0.93181 0.46921,1.40836 -0.15819,2.14106 -1.02023,1.19153 -2.15955,1.24221 -2.15955,0.0959 z m 610.81388,-9.11716 c 0,-0.54968 0.35073,-0.99944 0.77962,-0.99944 0.42869,0 0.93,0.44976 1.11389,0.99944 0.18395,0.54968 -0.16687,0.99944 -0.77956,0.99944 -0.61271,0 -1.11395,-0.44976 -1.11395,-0.99944 z m -9.19739,-1.06153 c 0,-1.13777 1.45333,-1.25354 1.8242,-0.14539 0.14575,0.43555 -0.20515,0.85737 -0.77965,0.93729 -0.57456,0.08 -1.04455,-0.27641 -1.04455,-0.79194 z m -536.53469,-1.61264 c -0.48687,-2.3438 0.25499,-2.68767 2.12495,-0.98502 0.97546,0.88816 1.53009,1.68246 1.23252,1.76512 -2.28009,0.63347 -3.10357,0.44211 -3.35747,-0.7801 z m 467.82488,-2.32297 c 0,-0.54968 0.10732,-0.99941 0.23858,-0.99941 0.1312,0 0.38907,0.44973 0.57295,0.99941 0.18388,0.54971 0.0765,0.99946 -0.23857,0.99946 -0.3151,0 -0.57296,-0.44975 -0.57296,-0.99946 z m -7.79998,-0.86528 c -0.23304,-0.69662 -0.27758,-1.53646 -0.099,-1.86635 0.48414,-0.89444 1.01208,0.42108 0.75063,1.8704 -0.18332,1.01558 -0.31075,1.0148 -0.65162,-0.004 z m 1.984,0.20327 c -1.10758,-0.82555 -0.76655,-2.19282 0.40578,-1.62651 0.59509,0.28746 1.08203,0.91997 1.08203,1.40557 0,0.95282 -0.4219,1.01546 -1.48781,0.22094 z m 259.37509,-5.00149 c -0.62256,-1.14994 -0.39409,-2.33201 0.45077,-2.33201 0.44636,0 0.8116,0.67462 0.8116,1.49916 0,1.56066 -0.63993,1.98283 -1.26237,0.83285 z m -671.42921,-6.1222 c -0.14573,-0.43561 0.21036,-0.85813 0.79128,-0.93897 0.58096,-0.0808 0.91491,0.27556 0.74214,0.79196 -0.38334,1.14583 -1.1739,1.2216 -1.53342,0.14695 z m 4.87675,-1.71674 c 0.17012,-0.81894 0.70933,-1.5237 1.19823,-1.56601 0.48889,-0.0425 1.98447,-0.27953 3.3235,-0.52713 1.7558,-0.32467 2.20832,-0.16829 1.62307,0.56136 -0.66955,0.83457 -0.67743,1.01427 -0.0451,1.02687 0.42152,0.008 0.61472,0.29559 0.42928,0.63811 -0.18544,0.34259 -1.79992,0.78775 -3.58774,0.98935 -2.70802,0.30532 -3.19894,0.1178 -2.94127,-1.12255 z M 26.546302,421.29295 c -0.400121,-1.19591 0.617644,-2.38088 1.338271,-1.55814 0.605052,0.6908 0.207842,2.48852 -0.549848,2.48852 -0.262436,0 -0.617232,-0.41869 -0.788423,-0.93038 z m 5.116593,-25.99512 c 0,-0.51724 0.240679,-1.21522 0.534837,-1.55104 0.306691,-0.35014 0.397376,0.0511 0.212624,0.94046 -0.359658,1.73142 -0.747461,2.04818 -0.747461,0.61058 z m 3.967504,-0.51469 c 0,-0.80039 0.206852,-1.21902 0.459673,-0.93041 0.252822,0.28864 0.319606,0.94348 0.148415,1.45518 -0.437486,1.30764 -0.608088,1.16039 -0.608088,-0.52477 z M 978.45153,264.31428 c -0.44635,-0.53281 -0.56815,-0.96877 -0.27056,-0.96877 0.2976,0 0.90628,0.43596 1.35253,0.96877 0.44636,0.53287 0.56817,0.96884 0.27057,0.96884 -0.29751,0 -0.90618,-0.43597 -1.35254,-0.96884 z m -888.89929,-74.17 c 0,-0.43274 0.486935,-0.78675 1.082063,-0.78675 0.595116,0 1.082031,0.42179 1.082031,0.93729 0,0.51553 -0.486915,0.86954 -1.082031,0.78675 -0.595128,-0.083 -1.082063,-0.50461 -1.082063,-0.93729 z m 22.65621,-14.67755 -1.26865,-1.89772 3.23754,-0.79396 c 1.78065,-0.43664 4.51542,-0.81946 6.07727,-0.85069 1.56184,-0.0311 2.84,-0.3627 2.84037,-0.73659 5.2e-4,-0.77813 3.22305,0.77159 3.726,1.79196 0.18279,0.37077 -0.41874,0.41073 -1.33668,0.089 -1.02746,-0.36032 -2.27524,0.007 -3.24615,0.95462 -0.86741,0.84701 -2.85529,1.5835 -4.41749,1.63672 -1.5622,0.0532 -2.84037,0.45852 -2.84037,0.9006 0,1.4327 -1.47086,0.85226 -2.77184,-1.09379 z m -6.82003,0.29443 c 0.17977,-0.3321 0.6464,-0.36762 1.03695,-0.0787 0.4316,0.31903 0.3034,0.55586 -0.32685,0.60382 -0.57033,0.0434 -0.88988,-0.19292 -0.7101,-0.52492 z m -9.842212,-13.80453 c -0.0233,-1.05355 0.10438,-1.64385 0.28415,-1.31175 0.1798,0.33212 0.199,1.19411 0.0427,1.91557 -0.1727,0.79727 -0.30091,0.56045 -0.32686,-0.60382 z m 14.775752,-8.40015 c 0.1511,-0.45157 -0.22348,-1.60915 -0.83242,-2.5723 -1.08941,-1.72314 -1.05352,-1.7981 2.24038,-4.67571 3.96717,-3.46577 4.33243,-3.54384 4.33243,-0.92562 0,1.23155 -0.36344,2.00473 -0.94681,2.01408 -0.76735,0.0141 -0.80173,0.18493 -0.18135,0.91038 0.42098,0.49226 1.21222,0.73604 1.75832,0.54185 0.54609,-0.19434 0.99289,0.10506 0.99289,0.66532 0,0.56022 -0.79124,0.93856 -1.75832,0.84079 -0.96707,-0.0975 -2.24524,-0.12533 -2.84037,-0.061 -0.90143,0.0971 -0.9466,0.27827 -0.2705,1.08538 0.69354,0.828 0.67386,0.97101 -0.13526,0.98409 -0.52074,0.009 -0.94678,0.46512 -0.94678,1.01475 0,0.54969 -0.37957,0.9994 -0.84347,0.9994 -0.4639,0 -0.71984,-0.3695 -0.56874,-0.82112 z m 6.91778,-8.06475 c -0.5439,-0.62095 -0.52271,-1.0378 0.10138,-1.99466 0.87543,-1.34217 1.57307,-0.16985 0.97057,1.63083 -0.2148,0.64207 -0.68766,0.80251 -1.07195,0.36383 z M 98.479108,103.40701 c -0.18389,-0.54973 0.0309,-0.99945 0.47718,-0.99945 0.44634,0 0.962,0.44972 1.145892,0.99945 0.1839,0.54971 -0.0308,0.99945 -0.477172,0.99945 -0.44634,0 -0.96198,-0.44974 -1.1459,-0.99945 z m 11.080682,-4.474537 c 0.77914,-1.73419 1.09233,-1.91468 1.09233,-0.62954 0,0.49096 -0.39963,1.17583 -0.88805,1.52206 -0.74255,0.526367 -0.77602,0.380177 -0.20428,-0.89252 z M 874.1866,82.803994 c 0.63413,-1.171574 4.09819,-2.089585 4.79711,-1.271428 0.40221,0.470773 0.48777,0.90753 0.19021,0.970449 -2.91195,0.616705 -5.2341,0.756817 -4.98732,0.300979 z m -3.28451,-1.232984 c -0.44983,-0.527096 -0.11343,-0.817544 0.94681,-0.817544 0.90432,0 1.64429,0.37478 1.64429,0.832831 0,1.06371 -1.679,1.053838 -2.5911,-0.01644 z m -13.91007,-1.275926 c -2.31607,-0.957776 -7.93845,-1.644747 -18.44398,-2.253419 -3.59772,-0.208462 -7.06178,-0.893654 -7.69796,-1.52249 -0.69225,-0.684429 -3.11592,-1.032616 -6.03727,-0.867297 -2.68451,0.151949 -4.88079,0.174316 -4.88079,0.04853 0,-0.34774 3.14792,-3.276376 3.52165,-3.276376 0.18117,0 0.17882,0.449738 -0.007,0.999376 -0.19507,0.583135 0.35505,0.999471 1.32062,0.999471 0.91025,0 1.655,-0.44976 1.655,-0.999471 0,-0.549638 0.25789,-0.999376 0.57298,-0.999376 0.3151,0 0.39009,0.562195 0.16663,1.249262 -0.30041,0.923713 -0.20295,0.985595 0.37382,0.237139 0.42906,-0.556681 1.26704,-0.960553 1.86219,-0.897423 0.59516,0.06289 2.37456,0.181165 3.95435,0.262511 1.57978,0.0815 2.75928,0.485191 2.6211,0.897449 -0.13818,0.412259 1.24729,0.683721 3.07891,0.603277 1.83154,-0.08127 3.7562,0.272781 4.2769,0.784778 0.63193,0.621486 0.94681,0.567354 0.94681,-0.162301 0,-0.601535 0.29435,-0.757619 0.65397,-0.346961 0.35972,0.410704 2.73349,0.86937 5.27508,1.019374 2.54142,0.149816 4.62093,0.325903 4.62093,0.391035 0,0.06526 1.21733,0.264114 2.7051,0.442342 1.48777,0.178093 2.766,0.42347 2.84032,0.545256 0.12695,0.207777 0.68439,0.51056 1.62309,0.881547 0.43049,0.170324 -2.10899,3.072802 -2.56989,2.937376 -0.14874,-0.04428 -1.24427,-0.482174 -2.43449,-0.974335 z m -21.9114,-4.996856 c 0,-0.480948 -0.47248,-0.874504 -1.05007,-0.874504 -0.5776,0 -1.18176,0.393556 -1.34273,0.874504 -0.16095,0.481019 0.3117,0.874479 1.0501,0.874479 0.73848,0 1.3427,-0.39346 1.3427,-0.874479 z m 28.93928,-2.88965 c -0.18691,-0.558639 -0.56647,-0.756983 -0.84351,-0.440741 -0.27701,0.316268 -0.50371,0.125102 -0.50371,-0.424366 0,-1.935009 0.87298,-1.965679 1.51944,-0.05299 0.35963,1.063803 0.54451,1.934138 0.41074,1.934138 -0.1337,0 -0.39613,-0.457087 -0.58296,-1.015631 z m -11.58148,-3.898049 c -0.57028,-1.053627 -1.14986,-1.707032 -1.28786,-1.4522 -0.13793,0.255021 -1.43642,0.614255 -2.88543,0.798557 -2.50999,0.31926 -5.62204,-1.739748 -4.83301,-3.197435 0.63169,-1.166863 4.36798,-0.893751 5.18403,0.378856 0.83566,1.302994 2.35815,1.346242 3.04007,0.08575 0.57425,-1.060528 3.33392,-0.827982 3.71569,0.313157 0.51977,1.553349 -0.25255,4.988187 -1.12148,4.988187 -0.42628,0 -1.24173,-0.861994 -1.81201,-1.915576 z m 5.58394,0.761692 c -0.23041,-0.688762 -0.14916,-0.883667 0.20127,-0.483493 0.32298,0.368868 0.74022,0.21342 0.92704,-0.345288 0.50414,-1.506825 1.17763,-1.230228 1.17763,0.483446 0,1.760526 -1.74504,2.021812 -2.30594,0.345335 z M 225.49531,61.826924 c 0.17978,-0.332191 0.6464,-0.367714 1.03697,-0.07892 0.43159,0.319002 0.3034,0.555812 -0.32688,0.603819 -0.57032,0.04334 -0.88986,-0.192926 -0.71009,-0.524952 z M 334.63523,33.447289 c 0,-0.549642 0.10736,-0.999377 0.23859,-0.999377 0.13122,0 0.38904,0.449735 0.57296,0.999377 0.18391,0.549732 0.0765,0.999445 -0.23858,0.999445 -0.31512,0 -0.57297,-0.449713 -0.57297,-0.999445 z m 12.61562,0.101052 c -0.87333,-1.185354 -0.66447,-2.888686 0.29724,-2.424181 0.61327,0.296363 1.00674,-0.111188 1.06355,-1.101821 0.0496,-0.864751 0.13073,-2.246847 0.18034,-3.071363 0.0496,-0.824521 0.53651,-1.555282 1.08205,-1.624044 0.54553,-0.069 1.17446,-0.217895 1.39763,-0.331318 0.22317,-0.113791 1.13615,-0.56905 2.02884,-1.012357 1.98509,-0.985571 3.06332,-2.457839 2.66722,-3.64178 -0.16307,-0.487379 0.18451,-0.886138 0.7724,-0.886138 0.58789,0 1.19238,0.562099 1.34329,1.249259 0.19066,0.868029 0.41084,0.921946 0.72136,0.177153 0.79432,-1.905635 2.45078,-2.500433 3.32452,-1.193551 0.7014,1.048961 0.76728,1.022789 0.38368,-0.152869 -0.3518,-1.077938 -0.23608,-1.258168 0.4814,-0.749561 0.51951,0.368347 1.27342,0.669563 1.67538,0.669563 0.40196,0 0.87742,0.85328 1.0566,1.896236 0.20944,1.218896 0.67334,1.728229 1.29885,1.426121 1.38094,-0.667116 1.2381,-3.138219 -0.15407,-2.664971 -1.10003,0.373909 -1.10112,0.360199 -0.0451,-0.56667 0.59512,-0.522317 1.90609,-0.981262 2.91325,-1.019894 1.00714,-0.03912 3.32003,-0.511337 5.1397,-1.050541 4.71634,-1.397243 16.57211,-3.845778 21.97377,-4.538072 2.52927,-0.324064 5.69426,-0.767514 7.03329,-0.985503 2.82107,-0.459088 8.39034,-1.189923 15.68965,-2.0588197 2.82682,-0.3365 6.72219,-0.859544 8.65634,-1.16222 4.64851,-0.727443 11.96618,-0.781738 12.98453,-0.09589 0.44635,0.300508 1.84624,0.891678 3.11088,1.313878 1.26463,0.4220587 2.29935,1.0983577 2.29935,1.5028437 0,0.404391 -0.60189,1.847213 -1.33753,3.206083 -1.08888,2.011566 -1.84355,2.452517 -4.05992,2.372448 -1.61884,-0.05914 -2.64842,0.311956 -2.5399,0.913726 0.10038,0.556518 2.05693,1.048939 4.3479,1.094143 3.59787,0.0709 5.99421,1.363861 5.17643,2.792574 -0.36582,0.639248 -7.53838,1.270911 -7.53702,0.663818 4.9e-4,-0.297257 -1.64268,-0.399704 -3.6519,-0.227791 -2.00921,0.171949 -5.04979,-0.09565 -6.75685,-0.596115 -1.70704,-0.499865 -3.21922,-0.695476 -3.36039,-0.434614 -0.14115,0.260651 -1.30079,0.568884 -2.577,0.684852 -1.27617,0.11612 -2.993,0.558379 -3.81518,0.983194 -0.88899,0.45937 -1.77332,0.345523 -2.18196,-0.28098 -0.37793,-0.579343 -3.04109,-1.157343 -5.91814,-1.284431 -3.56151,-0.157116 -5.11984,-0.574326 -4.88272,-1.306903 0.19156,-0.591617 -0.0651,-0.456545 -0.57003,0.300343 -0.63175,0.94661 -1.60519,1.173268 -3.11928,0.726006 -1.44542,-0.426935 -2.08348,-0.298977 -1.85874,0.3728 0.3831,1.145048 0.31183,1.166979 -4.5908,1.410315 -1.93414,0.09588 -4.06442,0.528134 -4.73392,0.960369 -0.66952,0.432258 -1.21732,0.418313 -1.21732,-0.0311 0,-0.44929 -0.60864,-0.816933 -1.35254,-0.816933 -0.74391,0 -1.35256,0.337302 -1.35256,0.749584 0,0.41226 -0.37955,0.749562 -0.84346,0.749562 -0.46391,0 -0.71634,-0.379821 -0.56099,-0.844328 0.37549,-1.122316 -5.18234,0.525966 -5.58576,1.656596 -0.73855,2.069773 -10.86352,4.16725 -10.86352,2.250428 0,-0.584973 -0.25783,-1.063875 -0.57296,-1.063875 -0.31514,0 -0.43289,0.418737 -0.26169,0.930427 0.48939,1.4628 -0.75537,2.363452 -1.56046,1.129054 -0.54014,-0.828075 -0.79396,-0.777427 -0.99672,0.198586 -0.17507,0.842727 -1.06536,1.227706 -2.49777,1.079727 -1.22415,-0.12649 -2.22574,0.190323 -2.22574,0.703603 0,1.65278 -2.77955,0.5674 -3.31944,-1.296115 -0.2871,-0.990966 -0.75723,-1.533256 -1.04471,-1.205046 -0.28748,0.328209 -0.3984,0.96833 -0.24647,1.422401 0.15192,0.454095 -0.0797,1.078054 -0.51487,1.386453 -0.43511,0.308491 -0.93739,0.123673 -1.11616,-0.410846 -0.19821,-0.592419 -0.89127,-0.388867 -1.77566,0.52142 -1.6642,1.713059 -6.84031,3.533136 -7.50023,2.637384 z m -7.74641,-4.539513 c 0,-1.755484 0.32463,-2.013921 0.78842,-0.627751 0.17119,0.51169 0.0638,1.212913 -0.23859,1.558062 -0.3024,0.345312 -0.54983,-0.07231 -0.54983,-0.930311 z m 2.03881,-1.726391 c 0.31438,-0.58083 0.89097,-0.859335 1.28129,-0.619038 0.40519,0.249555 0.15993,0.702568 -0.57163,1.055959 -0.89991,0.434732 -1.11114,0.304605 -0.70966,-0.436921 z M 527.91536,24.74653 c -0.66952,-0.238226 -1.21731,-0.776415 -1.21731,-1.195955 0,-1.223088 2.35143,-0.558188 2.58403,0.730671 0.11619,0.643839 0.13011,1.109336 0.0308,1.034452 -0.0992,-0.07514 -0.72812,-0.330919 -1.39762,-0.569168 z m -11.22622,-2.292995 c 1.48732,-1.180547 2.34155,-1.180547 1.35256,0 -0.44636,0.532939 -1.17673,0.944231 -1.62308,0.913892 -0.5351,-0.03628 -0.44293,-0.34748 0.27052,-0.913892 z m 3.2773,0.09305 c -0.16675,-0.498453 0.1841,-0.670814 0.77961,-0.383097 1.26328,0.61025 1.423,1.289402 0.30318,1.289402 -0.42875,0 -0.916,-0.407855 -1.08279,-0.906305 z M 450.31747,20.2849 c -0.8516,-1.581169 -0.46505,-1.690896 6.22174,-1.765285 3.92139,-0.04428 7.67243,-0.273159 8.3357,-0.509945 0.66325,-0.236836 1.33217,-0.05299 1.48648,0.408087 0.15432,0.461231 1.02558,0.743321 1.93612,0.62681 2.4618,-0.314783 2.4735,1.140266 0.0126,1.57382 -1.16358,0.20494 -1.99996,0.02661 -1.85864,-0.395274 0.44413,-1.327517 -0.38898,-0.834978 -1.23678,0.731186 -0.92039,1.700199 -3.20579,2.006315 -3.71076,0.497015 -0.22261,-0.665417 -0.69161,-0.649942 -1.39567,0.04593 -1.19783,1.184197 -2.32549,0.379468 -1.77481,-1.266504 0.24083,-0.719763 0.10725,-0.788196 -0.39693,-0.203524 -0.41793,0.484647 -2.09889,1.120194 -3.73548,1.41234 -2.34193,0.417912 -3.16899,0.172183 -3.88364,-1.154848 z m 43.37823,1.168981 c 0,-0.54964 0.10736,-0.999375 0.23859,-0.999375 0.1312,0 0.38904,0.449735 0.57294,0.999375 0.18391,0.54971 0.0765,0.999471 -0.23858,0.999471 -0.31512,0 -0.57295,-0.449761 -0.57295,-0.999471 z m -21.64087,-1.998798 c -0.48762,-0.582077 -0.55434,-0.974995 -0.16721,-0.984158 0.3544,-0.0094 0.79484,0.434424 0.97874,0.984158 0.41512,1.240852 0.22783,1.240852 -0.81153,0 z M 683.36947,19.31869 c 0.27997,-0.836719 -1.78131,-1.820971 -2.19876,-1.049763 -0.58171,1.074521 -2.9865,1.277554 -2.9865,0.25203 0,-0.634324 -1.53932,-0.787133 -4.19289,-0.416171 -3.25314,0.454872 -4.61739,0.220488 -6.08653,-1.045403 -1.04143,-0.897284 -1.48324,-1.42525 -0.98173,-1.173247 0.50151,0.252007 0.98844,0.06714 1.08202,-0.410138 0.0936,-0.47751 0.53541,-1.014382 0.98175,-1.193103 0.44635,-0.178327 0.99039,-0.774507 1.20902,-1.324241 0.21863,-0.549708 0.40122,-0.01644 0.40577,1.190041 0.007,2.069728 0.0897,2.110904 1.49608,0.753637 1.33468,-1.287963 1.56494,-1.256162 2.23689,0.309129 0.71238,1.659565 0.73311,1.659377 0.42276,0 -0.2519,-1.349774 -0.0278,-1.748961 0.98236,-1.748961 0.7198,0 1.55683,0.787064 1.86016,1.748961 0.30605,0.970639 0.55874,1.193033 0.56788,0.499748 0.0172,-1.308742 1.63953,-1.803281 1.63953,-0.499748 0,0.412236 1.8405,0.723557 4.09001,0.691801 2.24953,-0.0318 4.21151,0.305502 4.3601,0.749611 0.14857,0.443989 0.79134,0.807272 1.42842,0.807272 0.92665,0 1.02307,0.249886 0.48204,1.249261 -0.67712,1.250839 -7.20879,1.840146 -6.79838,0.613335 z m 8.88133,-0.03016 c 0,-0.458145 0.1826,-0.863242 0.40576,-0.900368 0.22318,-0.03722 1.18473,-0.255728 2.1368,-0.485731 2.14057,-0.517344 2.90261,1.197203 0.84348,1.897718 -2.03576,0.692556 -3.38604,0.488629 -3.38604,-0.511619 z m -38.95311,-3.33152 c 9e-5,-0.549614 -0.91293,-0.999351 -2.02894,-0.999351 -1.1161,0 -2.20808,0.449737 -2.4267,0.999351 -0.26498,0.666313 -0.40066,0.666313 -0.40702,0 -0.012,-1.252088 -3.25318,-1.548285 -3.25318,-0.297161 0,0.503209 -0.22125,0.662333 -0.49165,0.353556 -0.51529,-0.588247 -5.27426,-1.532738 -10.32879,-2.049916 -1.63657,-0.167486 -2.9756,-0.405451 -2.9756,-0.528934 0,-0.669845 -7.11853,-0.680187 -7.57398,-0.01174 -0.81298,1.194635 -6.22209,2.028102 -6.22209,0.958623 0,-0.508086 -0.36519,-0.923711 -0.81153,-0.923711 -0.44634,0 -0.81154,0.433929 -0.81154,0.964441 0,0.602146 -3.81069,0.78671 -10.14415,0.491478 -5.57931,-0.260037 -10.73145,-0.468135 -11.44924,-0.462362 -0.71775,0.0094 -2.11764,-0.404226 -3.11086,-0.910806 -1.08599,-0.553878 -1.80581,-0.557316 -1.80581,-0.0094 0,0.908239 -1.89224,0.761176 -2.40545,-0.187035 -0.14808,-0.273487 -2.61009,-0.337422 -5.47119,-0.141813 -3.44825,0.235564 -5.45967,-0.03982 -5.96644,-0.816767 -0.59541,-0.912925 -0.76636,-0.868708 -0.7728,0.19951 -0.005,0.866612 -0.15462,0.987268 -0.40577,0.327575 -0.23864,-0.626621 -3.31651,-1.093673 -7.70129,-1.168392 -4.01708,-0.06808 -16.19008,-0.38185 -27.05109,-0.696182 -10.86102,-0.314219 -24.79909,-0.63138 -30.97352,-0.704572 -6.1744,-0.07231 -11.22676,-0.4144697 -11.22743,-0.7583937 -4.8e-4,-0.34411 -1.33978,-0.62556 -2.97577,-0.62556 -1.63598,0 -2.97446,0.337302 -2.97438,0.749561 7e-5,0.4122827 -0.25771,0.7495827 -0.57282,0.7495827 -0.31513,0 -0.42248,-0.449735 -0.23858,-0.9994677 0.18389,-0.549615 -0.0452,-0.999352 -0.50908,-0.999352 -0.46393,4.23e-4 -0.84348,-0.449314 -0.84348,-0.998905 0,-0.549733 -0.25782,-0.99947 -0.57296,-0.99947 -0.31512,0 -0.42246,0.449737 -0.23856,0.99947 0.19751,0.590249 -0.39845,0.993156 -1.45589,0.984041 -1.35493,-0.01409 -1.5929,-0.250852 -0.9787,-0.984041 0.59937,-0.715594 0.62462,-0.972853 0.0966,-0.984181 -0.5506,-0.01409 -0.5284,-0.359967 0.0966,-1.514437 0.44634,-0.824517 1.31584,-1.499144 1.93222,-1.499144 0.61637,0 1.12069,-0.480078 1.12069,-1.066818 0,-0.632794 0.46764,-0.792506 1.1498,-0.392542 0.77373,0.453623 1.02871,0.312214 0.77959,-0.43233 -0.2036,-0.60866899 -0.22624,-1.10657999 -0.0504,-1.10657999 0.17593,0 0.50512,0.92493899 0.7315,2.05547499 l 0.41163,2.055571 1.42669,-2.073167 c 0.97802,-1.421011 1.54495,-1.71968099 1.80267,-0.94932 0.26657,0.796768 0.50796,0.729234 0.82961,-0.232262 0.36865,-1.10198909 4.08058,-1.34907109 19.81491,-1.31873049 10.64872,0.021206 23.74358,0.3260897 29.09968,0.6792925 5.35612,0.35310899 14.2424,0.90284299 19.74731,1.22158299 19.87757,1.150678 24.99824,1.568872 25.44362,2.077406 0.99543,1.136286 5.35493,2.144234 6.01503,1.390598 0.40684,-0.464411 0.88078,-0.298597 1.12365,0.393249 0.31348,0.892879 0.55526,0.816063 0.95278,-0.302651 0.29303,-0.824518 0.53679,-1.049385 0.54174,-0.499675 0.005,0.630765 3.35174,0.954805 9.07039,0.878625 9.03761,-0.1206 24.47999,1.492763 24.48114,2.557743 3.4e-4,0.308728 1.88716,0.510701 4.19291,0.44903 3.95154,-0.106002 13.054,1.2617917 14.66792,2.2040697 0.5953,0.347619 0.60658,0.721269 0.0587,1.940733 -0.55213,1.228931 -0.5383,1.428335 0.0744,1.070962 0.41404,-0.241477 1.43224,-0.714722 2.26268,-1.051601 0.93031,-0.377443 1.3899,-1.080786 1.19716,-1.832468 -0.17207,-0.670976 -0.0292,-0.515953 0.31781,0.344298 0.50998,1.26514 1.20516,1.420281 3.63475,0.811257 1.70852,-0.428276 3.41322,-0.348635 3.95268,0.184687 0.52171,0.515859 1.63402,0.999022 2.47193,1.073884 1.40331,0.125336 1.42052,0.171968 0.21835,0.590463 -1.00983,0.351625 -1.13219,0.65649 -0.54099,1.347749 0.83641,0.978035 0.1334,1.100552 -7.48653,1.304406 -2.6581,0.0709 -4.46324,-0.284913 -4.46305,-0.880157 z M 496.05663,6.9682443 c -0.17062,-0.821433 -0.52817,-1.244576 -0.79456,-0.940415 -0.76388,0.872078 -0.56481,2.433743 0.31024,2.433743 0.48263,0 0.67274,-0.586223 0.48432,-1.493328 z m -31.55412,3.4163917 c 0.55676,-1.9219327 0.52369,-2.1401817 -0.24209,-1.5973287 -0.76388,0.541466 -0.79828,0.322628 -0.24798,-1.576952 l 0.63903,-2.205647 0.53823,2.22819 c 0.61751,2.5564 1.73477,2.9281187 2.19159,0.728973 0.17126,-0.82454 0.11615,-1.499121 -0.12247,-1.499121 -0.23864,0 -0.43389,-0.680118 -0.43389,-1.511445 0,-1.228836 0.48884,-1.391658 2.61497,-0.870663 1.78642,0.437699 2.61493,0.283288 2.61493,-0.487308 0,-0.626693 0.85601,-1.128229 1.9255,-1.128229 1.26236,0 1.79886,0.378572 1.55778,1.099135 -0.26146,0.781409 -0.0396,0.774767 0.76743,-0.02356 0.94318,-0.932452 1.08167,-0.864845 0.81894,0.399965 -0.17393,0.837189 -0.53364,1.522205 -0.79935,1.522205 -0.26574,0 -0.48316,0.449761 -0.48316,0.999377 0,2.08332 0.97775,0.879238 1.62307,-1.998845 0.75265,-3.356515 0.77202,-3.374984 2.1283,-2.034159 0.68417,0.676397 0.89559,1.732497 0.70861,3.53943 -0.14659,1.416485 -0.0535,2.444412 0.20662,2.284064 0.26021,-0.160188 0.59484,0.147937 0.74363,0.685394 0.16,0.577719 -1.12594,1.045946 -3.14789,1.1462727 -3.12512,0.154983 -3.46911,-0.03628 -4.00926,-2.2259977 -0.58237,-2.361121 -2.58125,-3.39656 -2.58125,-1.337221 0,0.582241 0.24068,0.783695 0.53482,0.447921 0.30181,-0.344652 0.40016,0.03792 0.22575,0.877263 -0.18059,0.869436 -0.66474,1.235927 -1.16461,0.881475 -0.55612,-0.394143 -0.72203,-0.20754 -0.47411,0.533621 0.43523,1.3008737 -1.36281,2.2614267 -3.45002,1.8430917 -0.74392,-0.148877 -1.79704,0.128623 -2.34031,0.617245 -0.88509,0.795944 -0.9207,0.657078 -0.34281,-1.337667 z m 14.80038,-3.7552967 c 0.15327,-0.45803 -0.0651,-0.83281 -0.48531,-0.83281 -0.42015,0 -0.63852,0.37478 -0.48527,0.83281 0.15326,0.458053 0.37163,0.832856 0.48527,0.832856 0.11366,0 0.33206,-0.374803 0.48531,-0.832856 z m -22.08816,3.9447137 c -0.163,-0.487214 0.18884,-1.1201257 0.78184,-1.4065687 0.71813,-0.346963 0.96779,-1.052427 0.74757,-2.112435 -0.18185,-0.875423 -0.1017,-1.591699 0.1781,-1.591699 0.74208,0 0.62213,3.26469 -0.17397,4.7354027 -0.80754,1.491704 -1.13336,1.571442 -1.53354,0.3753 z m 3.31758,-2.7787017 c 0.15224,-0.732954 0.34647,-1.332601 0.43155,-1.332601 0.0851,0 0.27932,0.599647 0.43158,1.332601 0.15225,0.732955 -0.0419,1.332603 -0.43158,1.332603 -0.38959,0 -0.58379,-0.599648 -0.43155,-1.332603 z m 2.08647,-2.799946 c 0.5776,-0.807016 1.58361,-1.481623 2.23556,-1.499148 1.29048,-0.03534 2.11274,1.480938 1.30429,2.404015 -0.27702,0.316195 -0.59694,0.05843 -0.71098,-0.573997 -0.1558,-0.863409 -0.49453,-0.865106 -1.3632,-0.0094 -1.66303,1.644182 -2.70894,1.412528 -1.46567,-0.324583 z m -7.18912,-0.135903 c 0.17979,-0.332097 0.64642,-0.367596 1.03697,-0.07869 0.43159,0.319023 0.30339,0.555833 -0.32688,0.603725 -0.57031,0.04334 -0.88986,-0.192691 -0.71009,-0.524858 z m 28.52764,-0.395628 c -0.69352,-0.82791 -0.67387,-0.971085 0.13528,-0.984182 0.52071,-0.0094 0.94678,0.434448 0.94678,0.984182 0,1.218919 -0.061,1.218919 -1.08206,0 z m -2.90556,-1.522233 c -0.25797,-1.242005 -0.1192,-1.32756 0.75365,-0.464576 1.25413,1.239887 1.373,1.986809 0.31623,1.986809 -0.41451,0 -0.89595,-0.685064 -1.06988,-1.522233 z"
     id="path2987"
     style="fill:#0f33ff;fill-opacity:1;stroke-width:1.33193" />
</svg>
